<?xml version="1.0" standalone="no"?>
<!DOCTYPE svg PUBLIC "-//W3C//DTD SVG 1.1//EN" "http://www.w3.org/Graphics/SVG/1.1/DTD/svg11.dtd" >
<svg xmlns="http://www.w3.org/2000/svg">
<metadata>Generated by IcoMoon</metadata>
<defs>
<font id="siteeditor" horiz-adv-x="1024">
<font-face units-per-em="1024" ascent="960" descent="-64" />
<missing-glyph horiz-adv-x="1024" />
<glyph unicode="&#x20;" horiz-adv-x="512" d="" />
<glyph unicode="&#x64;" glyph-name="icon-changeskin" d="M186 0h-96c-48 0-90 42-90 90v780c0 48 42 90 90 90h842c48 0 88-42 88-90v-780c4-48-38-90-86-90h-382l-2 64h382c18 0 28 12 28 28v778c0 20-12 30-28 30h-842v2c-20 0-30-18-30-28v-782c0-18 14-28 30-28h92zM640 842h132v-62h-132zM828 842h68v-62h-68zM760 706c-26 14-78-18-142-96-46-54-128-190-162-298 28 12 54 14 78 0 22-14 36-38 38-70 74 84 154 226 178 292 34 96 34 158 10 172zM456 218c-48 28-104 22-128-18-8-16-18-58-14-100 6-54-100-100-100-100s238-2 290 100c20 40 2 92-48 118z" />
<glyph unicode="&#xe040;" glyph-name="icon-duplicate" d="M768 960h-352c-35.344 0-64-28.656-64-64h352v-256h256v-512h-224v-64h224c35.344 0 64 28.656 64 64v575.984l-256 256.016zM768 704v165.504l165.472-165.504h-165.472zM64 832c-35.344 0-64-28.656-64-64v-768c0-35.344 28.656-64 64-64h544c35.344 0 64 28.656 64 64v575.984l-256 256.016h-352zM608 0h-544v768h288v-256h256v-512zM416 576v165.504l165.472-165.504h-165.472z" />
<glyph unicode="&#xe04b;" glyph-name="icon-portfolio2" d="M960.016 768.528h-255.6v62c0 52.944-43.056 96-96 96h-192.432c-52.944 0-96-43.056-96-96v-62h-255.968c-35.184 0-64-28.816-64-64v-224.256h-0.032v-64h0.032v-382.816c0-35.184 28.816-64 64-64h896c35.184 0 64 28.816 64 64v671.072c0 35.184-28.816 64-64 64zM383.984 830.528c0 17.664 14.336 32 32 32h192.432c17.664 0 32-14.336 32-32v-62h-256.432v62zM64.016 704.528h896v-224.256h-352.368v32.752c0 35.28-28.72 64-64 64h-63.744c-35.28 0-64-28.72-64-64v-32.752h-351.888v224.256zM543.696 351.872h-63.808v161.152h63.744l0.064-161.152zM64.016 33.472v382.816h351.872v-64.4c0-35.28 28.72-64 64-64h63.744c35.28 0 64 28.72 64 64v64.4h352.368v-382.816h-895.984z" />
<glyph unicode="&#xe050;" glyph-name="icon-undo" d="M990.064 17.664c-0.336 0-0.72 0-1.088 0.032-16.192 0.528-26.4 13.088-27.776 29.216-1.088 11.872-33.968 299.088-482.256 298.784v-183.664c0-12.368-7.12-23.664-18.336-28.944-11.088-5.312-24.432-3.68-33.968 4.224l-414.976 343.776c-7.44 6.096-11.712 15.184-11.68 24.784s4.336 18.688 11.776 24.752l414.96 340.56c9.568 7.808 22.784 9.312 33.936 4.096 11.152-5.312 18.288-16.56 18.288-28.912v-179.632c185.968-5.904 330.992-65.712 424.336-174.976 151.936-177.776 118.032-436.16 116.432-446.912-2.368-15.664-13.872-27.184-29.648-27.184zM446.944 410.192c0.032 0 0.064 0 0.064 0 320.224-0.192 442.592-108.32 512.464-203.808-10.224 76.496-40.064 168.72-105.008 244.032-86.336 100.096-225.44 152.848-407.536 152.848-17.68 0-32 14.32-32 32v143.776l-332.432-273.36 332.432-275.904v148.4c0 8.496 3.376 16.656 9.408 22.656 6 5.984 14.128 9.36 22.608 9.36z" />
<glyph unicode="&#xe051;" glyph-name="icon-rewind" d="M768 768q17.667 0 30.167-12.5t12.5-30.167-12.667-30.333l-268.333-268.333 268.333-268.333q12.667-12.667 12.667-30.333t-12.5-30.167-30.167-12.5q-18 0-30.333 12.333l-298.667 298.667q-12.333 12.333-12.333 30.333t12.333 30.333l298.667 298.667q12.333 12.333 30.333 12.333zM512 768q17.667 0 30.167-12.5t12.5-30.167-12.667-30.333l-268.333-268.333 268.333-268.333q12.667-12.667 12.667-30.333t-12.5-30.167-30.167-12.5q-18 0-30.333 12.333l-298.667 298.667q-12.333 12.333-12.333 30.333t12.333 30.333l298.667 298.667q12.333 12.333 30.333 12.333z" />
<glyph unicode="&#xe052;" glyph-name="icon-redo" d="M33.936 17.664c0.336 0 0.72 0 1.088 0.032 16.192 0.528 26.4 13.088 27.776 29.216 1.088 11.872 32.976 299.088 481.248 298.784l1.008-183.664c0-12.368 7.12-23.664 18.336-28.944 11.088-5.312 24.432-3.68 33.968 4.224l414.976 343.776c7.44 6.096 11.712 15.184 11.68 24.784s-4.336 18.688-11.776 24.752l-414.96 340.56c-9.568 7.808-22.784 9.312-33.936 4.096-11.152-5.312-18.288-16.56-18.288-28.912l-1.008-179.632c-185.952-5.888-329.968-65.712-423.328-174.96-151.936-177.776-118.032-436.16-116.432-446.912 2.368-15.68 13.872-27.2 29.648-27.2zM577.056 410.192c-0.032 0-0.064 0-0.064 0-320.208-0.192-442.592-108.32-512.464-203.824 10.224 76.496 40.064 168.72 105.008 244.032 86.336 100.096 225.44 152.848 407.536 152.848 17.68 0 32 14.32 32 32v143.776l332.432-273.344-332.448-275.904v148.4c0 8.496-3.376 16.656-9.408 22.656-5.984 5.984-14.112 9.36-22.592 9.36z" />
<glyph unicode="&#xe055;" glyph-name="icon-fast-forward" d="M469.333 768q17.667 0 30-12.333l298.667-298.667q12.667-12.667 12.667-30.333t-12.667-30.333l-298.667-298.667q-12.333-12.333-30-12.333t-30.167 12.5-12.5 30.167q0 18 12.333 30.333l268.333 268.333-268.333 268.333q-12.333 12.333-12.333 30.333 0 18.333 12.167 30.5t30.5 12.167zM213.333 768q17.667 0 30-12.333l298.667-298.667q12.667-12.667 12.667-30.333t-12.667-30.333l-298.667-298.667q-12.333-12.333-30-12.333t-30.167 12.5-12.5 30.167q0 18 12.333 30.333l268.333 268.333-268.333 268.333q-12.333 12.333-12.333 30.333 0 18.333 12.167 30.5t30.5 12.167z" />
<glyph unicode="&#xe120;" glyph-name="icon-menu" d="M128 725.334h768q17.667 0 30.167-12.5t12.5-30.167-12.5-30.167-30.167-12.5h-768q-17.667 0-30.167 12.5t-12.5 30.167 12.5 30.167 30.167 12.5zM128 213.334h768q17.667 0 30.167-12.5t12.5-30.167-12.5-30.167-30.167-12.5h-768q-17.667 0-30.167 12.5t-12.5 30.167 12.5 30.167 30.167 12.5zM128 469.334h768q17.667 0 30.167-12.5t12.5-30.167-12.5-30.167-30.167-12.5h-768q-17.667 0-30.167 12.5t-12.5 30.167 12.5 30.167 30.167 12.5z" />
<glyph unicode="&#xe129;" glyph-name="icon-ellipsis" d="M853.333 554.667q53 0 90.5-37.5t37.5-90.5-37.5-90.5-90.5-37.5-90.5 37.5-37.5 90.5 37.5 90.5 90.5 37.5zM170.667 554.667q53 0 90.5-37.5t37.5-90.5-37.5-90.5-90.5-37.5-90.5 37.5-37.5 90.5 37.5 90.5 90.5 37.5zM170.667 469.334q-17.667 0-30.167-12.5t-12.5-30.167 12.5-30.167 30.167-12.5 30.167 12.5 12.5 30.167-12.5 30.167-30.167 12.5zM512 554.667q53 0 90.5-37.5t37.5-90.5-37.5-90.5-90.5-37.5-90.5 37.5-37.5 90.5 37.5 90.5 90.5 37.5zM512 469.334q-17.667 0-30.167-12.5t-12.5-30.167 12.5-30.167 30.167-12.5 30.167 12.5 12.5 30.167-12.5 30.167-30.167 12.5zM853.333 469.334q-17.667 0-30.167-12.5t-12.5-30.167 12.5-30.167 30.167-12.5 30.167 12.5 12.5 30.167-12.5 30.167-30.167 12.5z" />
<glyph unicode="&#xe600;" glyph-name="icon-subtheme" d="M751.731 861.070h-614.956c-27.878 0-50.836-22.958-50.836-50.836v-512.462c0-28.698 22.96-51.992 50.836-51.656l89.939 1.085c12.967 0.156-17.992 356.918 32.861 384.192 65.731 35.254 546.179-9.825 545.982 5.904l-2.169 172.937c-0.35 27.876-22.958 50.836-51.656 50.836zM330.283 822.536c14.76 0 26.238-11.48 26.238-25.418s-11.48-25.418-26.238-25.418c-13.938 0-25.418 11.48-25.418 25.418s11.48 25.418 25.418 25.418zM252.389 822.536c13.938 0 25.418-11.48 25.418-25.418s-11.48-25.418-25.418-25.418c-14.76 0-26.238 11.48-26.238 25.418s11.48 25.418 26.238 25.418zM175.313 822.536c13.938 0 25.418-11.48 25.418-25.418s-11.48-25.418-25.418-25.418c-13.938 0-25.418 11.48-25.418 25.418s11.48 25.418 25.418 25.418zM750.647 642.721l-518.782 2.071 1.137-347.020h-96.227v434.568h614.956zM751.731 783.998h-358.312v25.418h358.312zM876.274 662.561h-614.956c-27.878 0-50.836-22.958-50.836-50.836v-512.462c0-28.698 22.958-51.656 50.836-51.656h614.956c28.698 0 51.656 22.958 51.656 51.656v512.462c0 27.878-22.958 50.836-51.656 50.836zM454.826 624.027c14.76 0 26.238-11.48 26.238-25.418s-11.48-25.418-26.238-25.418c-13.938 0-25.418 11.48-25.418 25.418s11.48 25.418 25.418 25.418zM376.932 624.027c13.938 0 25.418-11.48 25.418-25.418s-11.48-25.418-25.418-25.418c-14.76 0-26.238 11.48-26.238 25.418s11.48 25.418 26.238 25.418zM299.856 624.027c13.938 0 25.418-11.48 25.418-25.418s-11.48-25.418-25.418-25.418c-13.938 0-25.418 11.48-25.418 25.418s11.48 25.418 25.418 25.418zM876.274 99.263h-614.956v434.568h614.956v-434.568zM876.274 585.489h-358.312v25.418h358.312v-25.418z" />
<glyph unicode="&#xe601;" glyph-name="icon-accordionslider" d="M838.4 121.6c0-25.6-22.4-48-48-48v0c-25.6 0-48 22.4-48 48v643.2c0 25.6 22.4 48 48 48v0c25.6 0 48-22.4 48-48v-643.2zM1001.6 121.6c0-25.6-22.4-48-48-48v0c-25.6 0-48 22.4-48 48v643.2c0 25.6 22.4 48 48 48v0c25.6 0 48-22.4 48-48v-643.2zM608 816h-560c-25.6 0-44.8-22.4-44.8-48v-643.2c0-25.6 22.4-44.8 44.8-44.8h560c25.6 0 44.8 22.4 44.8 44.8v643.2c3.2 25.6-19.2 48-44.8 48zM598.4 192c0-25.6-22.4-44.8-44.8-44.8h-448c-25.6 0-44.8 22.4-44.8 44.8v512c0 25.6 22.4 44.8 44.8 44.8h444.8c25.6 0 44.8-22.4 44.8-44.8v-512z" />
<glyph unicode="&#xe602;" glyph-name="icon-accardion" d="M808.747 744.747c23.274 0 43.639-20.365 43.639-43.639v0c0-23.274-20.365-43.639-43.639-43.639h-584.765c-23.274 0-43.639 20.365-43.639 43.639v0c0 23.274 20.365 43.639 43.639 43.639h584.765zM808.747 893.119c23.274 0 43.639-20.365 43.639-43.639v0c0-23.274-20.365-43.639-43.639-43.639h-584.765c-23.274 0-43.639 20.365-43.639 43.639v0c0 23.274 20.365 43.639 43.639 43.639h584.765zM177.433 535.279v-509.124c0-23.274 20.365-40.73 43.639-40.73h584.765c23.274 0 40.73 20.365 40.73 40.73v509.124c0 23.274-20.365 40.73-40.73 40.73h-584.765c-23.274 2.909-43.639-17.456-43.639-40.73zM744.742 526.55c23.274 0 40.73-20.365 40.73-40.73v-407.299c0-23.274-20.365-40.73-40.73-40.73h-465.484c-23.274 0-40.73 20.365-40.73 40.73v404.389c0 23.274 20.365 40.73 40.73 40.73h465.484z" />
<glyph unicode="&#xe603;" glyph-name="icon-bbpress" d="M460.8-60.8c-128 12.8-249.6 76.8-332.8 172.8-172.8 198.4-172.8 480 0 678.4 44.8 44.8 102.4 89.6 160 121.6 160 76.8 358.4 64 505.6-32 57.6-38.4 102.4-83.2 140.8-140.8 115.2-172.8 115.2-396.8 0-563.2-102.4-166.4-288-256-473.6-236.8zM588.8-35.2c134.4 25.6 249.6 96 326.4 211.2 108.8 166.4 108.8 377.6 0 544-76.8 115.2-198.4 192-339.2 211.2-32 6.4-115.2 6.4-140.8 0-134.4-19.2-256-96-326.4-204.8-76.8-115.2-102.4-249.6-76.8-377.6 38.4-179.2 179.2-326.4 352-371.2 19.2-6.4 38.4-6.4 51.2-12.8 12.8 0 25.6-6.4 32-6.4 19.2 0 96 6.4 121.6 6.4zM467.2 16c-64 6.4-134.4 32-185.6 64l-12.8 6.4h12.8c51.2 6.4 108.8 32 147.2 70.4l19.2 19.2 6.4-12.8c12.8-19.2 38.4-44.8 57.6-57.6 25.6-12.8 51.2-19.2 83.2-19.2 70.4 0 134.4 25.6 185.6 83.2 32 38.4 57.6 76.8 64 121.6 19.2 89.6-19.2 160-96 179.2-25.6 6.4-57.6 6.4-76.8 0s-57.6-25.6-76.8-32c0-6.4-6.4-6.4-6.4-6.4s12.8 70.4 32 153.6 32 153.6 32 160c0 12.8-6.4 12.8-32 6.4-12.8 0-44.8-6.4-70.4-12.8-64-6.4-70.4-6.4-76.8-19.2s0-19.2 6.4-25.6c0 0 12.8 0 19.2 0 12.8 0 19.2 0 25.6-6.4s6.4-6.4 6.4-32c6.4-12.8-6.4-57.6-19.2-128-12.8-57.6-25.6-108.8-25.6-108.8s-6.4 6.4-12.8 12.8c-38.4 38.4-96 51.2-147.2 38.4-19.2-6.4-51.2-19.2-70.4-32-6.4-6.4-12.8-6.4-12.8-6.4s12.8 70.4 32 160c38.4 172.8 38.4 172.8 19.2 166.4-32-6.4-102.4-19.2-108.8-19.2s51.2 51.2 76.8 70.4c51.2 32 102.4 57.6 166.4 70.4 44.8 6.4 121.6 6.4 166.4 0 179.2-38.4 307.2-166.4 345.6-345.6 6.4-44.8 6.4-128 0-172.8-19.2-96-64-172.8-134.4-236.8-57.6-51.2-134.4-89.6-211.2-108.8-25.6 0-102.4-6.4-128 0zM236.8 131.2c-25.6 6.4-44.8 38.4-44.8 70.4 0 25.6 25.6 147.2 38.4 166.4 32 64 128 89.6 166.4 44.8 19.2-25.6 32-64 25.6-102.4-12.8-96-57.6-160-115.2-179.2-25.6-6.4-51.2-6.4-70.4 0v0zM588.8 131.2c-25.6 12.8-44.8 32-44.8 70.4 0 12.8 6.4 44.8 12.8 83.2 6.4 51.2 12.8 64 19.2 83.2 32 57.6 108.8 83.2 153.6 51.2 25.6-19.2 38.4-44.8 38.4-83.2 0-89.6-44.8-172.8-102.4-198.4-12.8-6.4-25.6-6.4-44.8-12.8-19.2 0-25.6 0-32 6.4zM108.8 284.8c-12.8 25.6-19.2 57.6-25.6 89.6-6.4 44.8-6.4 121.6 0 166.4 12.8 51.2 32 102.4 57.6 147.2 12.8 19.2 12.8 19.2 25.6 19.2 6.4 0 19.2 0 19.2 0 6.4-19.2 6.4-32 6.4-51.2 0-12.8-76.8-371.2-83.2-371.2 0-12.8 0-6.4 0 0v0z" />
<glyph unicode="&#xe604;" glyph-name="icon-changestyle" d="M896 931.2c-35.2 19.2-108.8-25.6-198.4-134.4-64-76.8-179.2-268.8-227.2-419.2 38.4 16 76.8 19.2 108.8 0s51.2-54.4 54.4-99.2c102.4 118.4 214.4 316.8 249.6 409.6 48 134.4 48 224 12.8 243.2zM470.4 246.4c-67.2 38.4-147.2 28.8-179.2-25.6-12.8-22.4-25.6-83.2-19.2-140.8 6.4-76.8-140.8-140.8-140.8-140.8s332.8-3.2 406.4 140.8c28.8 54.4 3.2 128-67.2 166.4z" />
<glyph unicode="&#xe605;" glyph-name="icon-font" d="M406.4 768c-9.6 32-41.6 57.6-76.8 57.6h-86.4c-35.2 0-67.2-22.4-76.8-57.6l-163.2-534.4c-6.4-22.4-3.2-48 12.8-67.2s38.4-32 60.8-32c35.2 0 64 22.4 73.6 57.6l32 121.6h198.4l35.2-121.6c9.6-35.2 41.6-57.6 76.8-57.6 25.6 0 48 12.8 64 32s19.2 48 12.8 70.4l-163.2 531.2zM208 428.8l38.4 147.2c12.8 38.4 22.4 92.8 32 134.4h3.2c9.6-41.6 22.4-92.8 35.2-134.4l41.6-147.2h-150.4zM1020.8 243.2v144c0 96-44.8 176-179.2 176-51.2 0-92.8-9.6-124.8-19.2-19.2-6.4-32-28.8-25.6-51.2v0c3.2-9.6 9.6-19.2 19.2-25.6s22.4-6.4 32-3.2c22.4 6.4 48 12.8 73.6 12.8 64 0 73.6-32 73.6-51.2v-9.6c-144 0-240-51.2-240-156.8 0-64 48-124.8 131.2-124.8 48 0 89.6 19.2 118.4 51.2h3.2l3.2-19.2c3.2-12.8 12.8-22.4 28.8-22.4h60.8c6.4 0 16 3.2 19.2 9.6 6.4 6.4 9.6 12.8 6.4 22.4 0 19.2 0 44.8 0 67.2zM899.2 294.4c0-6.4 0-16-3.2-22.4-9.6-25.6-35.2-48-67.2-48-28.8 0-51.2 16-51.2 48 0 48 51.2 64 118.4 64v-41.6z" />
<glyph unicode="&#xe606;" glyph-name="icon-footer" d="M768 569.6h-512v-51.2h512v51.2zM768 678.4h-512v-51.2h512v51.2zM761.6 332.8h-512v-172.8h512v172.8zM64 915.2v-896h896v896c0 0-896 0-896 0zM896 83.2h-768v768h768v-768zM768 787.2h-512v-51.2h512v51.2zM768 460.8h-512v-51.2h512v51.2z" />
<glyph unicode="&#xe607;" glyph-name="icon-header" d="M768 531.2h-512v-51.2h512v51.2zM768 787.2h-512v-179.2h512v179.2zM768 422.4h-512v-51.2h512v51.2zM64 915.2v-896h896v896c0 0-896 0-896 0zM896 83.2h-768v768h768v-768zM768 313.6h-512v-51.2h512v51.2zM768 204.8h-512v-51.2h512v51.2z" />
<glyph unicode="&#xe608;" glyph-name="icon-portfolio" d="M998.4 777.6h-352v80c0 16-12.8 25.6-25.6 25.6h-214.4c-16 0-25.6-12.8-25.6-25.6v-80h-355.2c-12.8 0-25.6-12.8-25.6-28.8v-646.4c0-16 12.8-25.6 25.6-25.6h969.6c16 0 25.6 12.8 25.6 25.6v646.4c3.2 16-9.6 28.8-22.4 28.8zM432 828.8h163.2v-54.4h-163.2v54.4zM969.6 131.2h-915.2v268.8h377.6v-80c0-16 12.8-25.6 25.6-25.6h108.8c16 0 25.6 12.8 25.6 25.6v80h377.6v-268.8zM486.4 345.6v163.2h54.4v-163.2h-54.4zM969.6 454.4h-377.6v80c0 16-12.8 25.6-25.6 25.6h-108.8c-16 0-25.6-12.8-25.6-25.6v-80h-377.6v268.8h915.2v-268.8z" />
<glyph unicode="&#xe609;" glyph-name="icon-woo" d="M640 601.6c-70.4 12.8-147.2-44.8-172.8-140.8-19.2-96 19.2-185.6 89.6-204.8s147.2 44.8 166.4 140.8c25.6 96-12.8 185.6-83.2 204.8zM640 403.2c-19.2-44.8-51.2-76.8-76.8-64s-32 64-12.8 108.8c19.2 44.8 51.2 76.8 76.8 64s32-64 12.8-108.8zM928 601.6c-70.4 19.2-147.2-44.8-166.4-140.8-25.6-96 19.2-185.6 89.6-204.8s147.2 44.8 166.4 140.8c19.2 96-19.2 185.6-89.6 204.8zM928 403.2c-19.2-44.8-51.2-76.8-76.8-64s-32 64-12.8 108.8c19.2 44.8 51.2 76.8 76.8 64s32-64 12.8-108.8zM467.2 582.4c6.4 19.2 12.8 38.4 6.4 57.6 0 12.8-32 25.6-51.2 19.2-32-19.2-44.8-70.4-51.2-96-12.8-19.2-25.6-115.2-25.6-115.2v-57.6c0 0-12.8 19.2-25.6 64s-19.2 121.6-51.2 128c-32 0-32-6.4-51.2-32s-89.6-179.2-89.6-179.2-32 179.2-44.8 211.2c-6.4 32-12.8 64-25.6 64s-32 0-32 0-25.6-12.8-25.6-32 25.6-192 38.4-236.8c12.8-44.8 32-134.4 57.6-153.6 19.2-19.2 44.8 6.4 76.8 64s70.4 140.8 70.4 140.8 32-115.2 57.6-140.8c19.2-25.6 51.2-70.4 76.8-70.4 32 0 32 12.8 38.4 25.6s-6.4 102.4 6.4 172.8c6.4 38.4 38.4 140.8 44.8 166.4z" />
<glyph unicode="&#xe60a;" glyph-name="icon-breadcrumb" horiz-adv-x="947" d="M838.131 586.677l-337.167 353.171c-4.233 4.423-10.083 6.904-16.206 6.904-6.109 0-11.959-2.497-16.206-6.904l-338.908-353.159c-8.589-8.949-8.288-23.154 0.664-31.757 8.949-8.58 23.156-8.333 31.757 0.664l30.187 31.466v-336.091c0-12.407 10.062-22.461 22.461-22.461h156.911c12.378 0 22.417 10.006 22.461 22.391l0.709 224.37h178.979v-224.305c0-12.407 10.054-22.461 22.461-22.461h156.852c12.407 0 22.461 10.054 22.461 22.461v336.201l30.176-31.613c4.411-4.582 10.31-6.904 16.206-6.904 5.592 0 11.206 2.069 15.554 6.276 8.94 8.58 9.23 22.798 0.649 31.75zM730.623 627.77v-354.337h-111.933v224.289c0 12.407-10.054 22.461-22.461 22.461h-223.823c-12.378 0-22.417-10.006-22.461-22.391l-0.709-224.37h-112.068v354.349c0 1.851-0.293 3.628-0.709 5.355l248.307 258.735 246.662-258.445c-0.482-1.82-0.808-3.693-0.808-5.653zM765.049-65.157c-5.75 5.75-5.75 15.094 0 21.206l64.386 60.638h-773.61c-8.263 0-12.54 7.923-12.54 16.191s6.471 17.288 14.737 17.288h773.61l-59.597 65.615c-5.464 6.017-5.75 15.455 0 21.204 2.873 2.873 6.826 4.313 10.425 4.313s8.044-1.308 10.78-4.313l93.7-103.009-100.679-99.127c-5.75-6.108-21.206 0-21.206 0z" />
<glyph unicode="&#xe800;" glyph-name="icon-aligncenter1" d="M128 747.008h768q17.408 0 30.72-12.288t12.288-30.72-12.288-29.696-30.72-13.312h-768q-17.408 0-29.696 13.312t-13.312 29.696 13.312 30.72 29.696 12.288zM212.992 235.008h598.016q17.408 0 29.696-12.288t12.288-30.72-12.288-29.696-29.696-13.312h-598.016q-17.408 0-29.696 13.312t-12.288 29.696 12.288 30.72 29.696 12.288zM128 404.992h768q17.408 0 30.72-12.288t12.288-29.696-12.288-30.72-30.72-12.288h-768q-17.408 0-29.696 12.288t-13.312 30.72 13.312 29.696 29.696 12.288zM212.992 576h598.016q17.408 0 29.696-12.288t12.288-30.72-12.288-29.696-29.696-12.288h-598.016q-17.408 0-29.696 12.288t-12.288 29.696 12.288 30.72 29.696 12.288z" />
<glyph unicode="&#xe801;" glyph-name="icon-justify1" d="M128 747.008h768q17.408 0 30.72-13.312t12.288-29.696-12.288-29.696-30.72-13.312h-768q-17.408 0-29.696 13.312t-13.312 29.696 13.312 29.696 29.696 13.312zM128 235.008h768q17.408 0 30.72-13.312t12.288-29.696-12.288-29.696-30.72-13.312h-768q-17.408 0-29.696 13.312t-13.312 29.696 13.312 29.696 29.696 13.312zM128 404.992h768q17.408 0 30.72-12.288t12.288-29.696-12.288-30.72-30.72-12.288h-768q-17.408 0-29.696 12.288t-13.312 30.72 13.312 29.696 29.696 12.288zM128 576h768q17.408 0 30.72-12.288t12.288-30.72-12.288-29.696-30.72-12.288h-768q-17.408 0-29.696 12.288t-13.312 29.696 13.312 30.72 29.696 12.288z" />
<glyph unicode="&#xe802;" glyph-name="icon-alignleft1" d="M128 747.008h768q17.408 0 30.72-12.288t12.288-30.72-12.288-29.696-30.72-13.312h-768q-17.408 0-29.696 13.312t-13.312 29.696 13.312 30.72 29.696 12.288zM128 235.008h596.992q18.432 0 30.72-12.288t12.288-30.72-12.288-29.696-30.72-13.312h-596.992q-17.408 0-29.696 13.312t-13.312 29.696 13.312 30.72 29.696 12.288zM128 404.992h768q17.408 0 30.72-12.288t12.288-29.696-12.288-30.72-30.72-12.288h-768q-17.408 0-29.696 12.288t-13.312 30.72 13.312 29.696 29.696 12.288zM128 576h596.992q18.432 0 30.72-12.288t12.288-30.72-12.288-29.696-30.72-12.288h-596.992q-17.408 0-29.696 12.288t-13.312 29.696 13.312 30.72 29.696 12.288z" />
<glyph unicode="&#xe803;" glyph-name="icon-alignright1" d="M128 747.008h768q17.408 0 30.72-13.312t12.288-29.696-12.288-29.696-30.72-13.312h-768q-17.408 0-29.696 13.312t-13.312 29.696 13.312 29.696 29.696 13.312zM299.008 235.008h596.992q17.408 0 30.72-13.312t12.288-29.696-12.288-29.696-30.72-13.312h-596.992q-18.432 0-30.72 13.312t-12.288 29.696 12.288 29.696 30.72 13.312zM128 404.992h768q17.408 0 30.72-12.288t12.288-29.696-12.288-30.72-30.72-12.288h-768q-17.408 0-29.696 12.288t-13.312 30.72 13.312 29.696 29.696 12.288zM299.008 576h596.992q17.408 0 30.72-12.288t12.288-30.72-12.288-29.696-30.72-12.288h-596.992q-18.432 0-30.72 12.288t-12.288 29.696 12.288 30.72 30.72 12.288z" />
<glyph unicode="&#xe804;" glyph-name="icon-drawer" d="M256 832h512l256-256v-384q0-53.248-37.888-90.112t-90.112-37.888h-768q-53.248 0-90.112 37.888t-37.888 90.112v384zM939.008 192v299.008h-187.392q-28.672-74.752-95.232-122.88t-144.384-48.128q-52.224 0-101.376 22.528t-86.016 61.44-55.296 87.040h-184.32v-299.008q0-17.408 12.288-29.696t30.72-13.312h768q17.408 0 29.696 13.312t13.312 29.696zM903.168 576l-168.96 171.008h-442.368l-171.008-171.008h220.16q0-41.984 23.552-81.92t62.464-63.488 84.992-25.6 86.016 25.6 62.464 63.488 22.528 81.92h220.16z" />
<glyph unicode="&#xe805;" glyph-name="icon-arrow-down" d="M712.704 392.704c-16.384 16.384-43.008 16.384-60.416 0l-97.28-97.28v323.584c0 23.552-19.456 41.984-43.008 41.984s-43.008-18.432-43.008-41.984v-323.584l-97.28 97.28c-16.384 16.384-44.032 16.384-60.416 0s-16.384-43.008 0-60.416l200.704-200.704 200.704 200.704c17.408 17.408 17.408 44.032 0 60.416z" />
<glyph unicode="&#xe806;" glyph-name="icon-arrow-left" d="M724.992 491.008h-323.584l98.304 97.28c16.384 17.408 16.384 44.032 0 60.416s-44.032 16.384-60.416 0l-200.704-200.704 200.704-200.704c8.192-8.192 19.456-12.288 29.696-12.288s22.528 4.096 30.72 12.288c16.384 16.384 16.384 44.032 0 60.416l-98.304 97.28h323.584c23.552 0 43.008 19.456 43.008 43.008s-19.456 43.008-43.008 43.008z" />
<glyph unicode="&#xe807;" glyph-name="icon-arrow-right" d="M567.296 648.704c-16.384-16.384-16.384-43.008 0-60.416l97.28-97.28h-323.584c-23.552 0-41.984-19.456-41.984-43.008s18.432-43.008 41.984-43.008h323.584l-97.28-97.28c-16.384-16.384-16.384-44.032 0-60.416 8.192-8.192 19.456-12.288 29.696-12.288s22.528 4.096 30.72 12.288l200.704 200.704-200.704 200.704c-16.384 17.408-44.032 17.408-60.416 0z" />
<glyph unicode="&#xe808;" glyph-name="icon-arrow-up" d="M555.008 721.408l-200.704-200.704c-17.408-16.384-17.408-43.008 0-60.416s43.008-16.384 59.392 0l98.304 98.304v-323.584c0-23.552 19.456-43.008 43.008-43.008s41.984 19.456 41.984 43.008v323.584l98.304-98.304c8.192-8.192 19.456-12.288 29.696-12.288s22.528 4.096 30.72 12.288c16.384 17.408 16.384 44.032 0 60.416l-200.704 200.704z" />
<glyph unicode="&#xe809;" glyph-name="icon-book" d="M212.992 916.992h683.008v-937.984h-683.008q-52.224 0-90.112 36.864t-37.888 91.136v681.984q0 53.248 37.888 91.136t90.112 36.864zM811.008 64v84.992h-598.016q-17.408 0-29.696-12.288t-12.288-29.696 12.288-30.72 29.696-12.288h598.016zM811.008 235.008v596.992h-598.016q-17.408 0-29.696-12.288t-12.288-30.72v-561.152q20.48 7.168 41.984 7.168h598.016z" />
<glyph unicode="&#xe80a;" glyph-name="icon-border-inner" d="M128 64h84.992v84.992h-84.992v-84.992zM299.008 64h84.992v84.992h-84.992v-84.992zM212.992 660.992h-84.992v-84.992h84.992v84.992zM128 235.008h84.992v84.992h-84.992v-84.992zM384 832h-84.992v-84.992h84.992v84.992zM212.992 832h-84.992v-84.992h84.992v84.992zM724.992 832h-84.992v-84.992h84.992v84.992zM811.008 576h84.992v84.992h-84.992v-84.992zM811.008 832v-84.992h84.992v84.992h-84.992zM640 64h84.992v84.992h-84.992v-84.992zM555.008 832h-86.016v-340.992h-340.992v-86.016h340.992v-340.992h86.016v340.992h340.992v86.016h-340.992v340.992zM811.008 64h84.992v84.992h-84.992v-84.992zM811.008 235.008h84.992v84.992h-84.992v-84.992z" />
<glyph unicode="&#xe80b;" glyph-name="icon-borderstyle3" d="M640 64h84.992v84.992h-84.992v-84.992zM811.008 64h84.992v84.992h-84.992v-84.992zM299.008 64h84.992v84.992h-84.992v-84.992zM468.992 64h86.016v84.992h-86.016v-84.992zM811.008 235.008h84.992v84.992h-84.992v-84.992zM811.008 404.992h84.992v86.016h-84.992v-86.016zM128 832v-768h84.992v683.008h683.008v84.992h-768zM811.008 576h84.992v84.992h-84.992v-84.992z" />
<glyph unicode="&#xe80c;" glyph-name="icon-chevron-left" d="M657.408 643.584l-60.416 60.416-256-256 256-256 60.416 60.416-195.584 195.584z" />
<glyph unicode="&#xe80d;" glyph-name="icon-chevron-right" d="M427.008 704l-60.416-60.416 195.584-195.584-195.584-195.584 60.416-60.416 256 256z" />
<glyph unicode="&#xe80e;" glyph-name="icon-clipboard" d="M427.008 916.992h169.984q41.984 0 74.752-23.552t46.080-61.44h50.176q53.248 0 90.112-37.888t37.888-90.112v-596.992q0-53.248-37.888-91.136t-90.112-36.864h-512q-53.248 0-90.112 36.864t-37.888 91.136v596.992q0 53.248 37.888 90.112t90.112 37.888h50.176q13.312 37.888 46.080 61.44t74.752 23.552zM768 747.008h-50.176q-13.312-37.888-46.080-61.44t-74.752-24.576h-169.984q-41.984 0-74.752 24.576t-46.080 61.44h-50.176q-17.408 0-29.696-12.288t-13.312-30.72v-596.992q0-18.432 13.312-30.72t29.696-12.288h512q17.408 0 30.72 12.288t12.288 30.72v596.992q0 17.408-12.288 30.72t-30.72 12.288zM596.992 832h-169.984q-18.432 0-30.72-12.288t-12.288-30.72 12.288-29.696 30.72-12.288h169.984q18.432 0 30.72 12.288t12.288 29.696-12.288 30.72-30.72 12.288z" />
<glyph unicode="&#xe810;" glyph-name="icon-columns1" d="M128 832h768q53.248 0 90.112-37.888t37.888-90.112v-512q0-53.248-37.888-90.112t-90.112-37.888h-768q-53.248 0-90.112 37.888t-37.888 90.112v512q0 53.248 37.888 90.112t90.112 37.888zM299.008 148.992v598.016h-171.008q-17.408 0-29.696-12.288t-13.312-30.72v-512q0-17.408 13.312-29.696t29.696-13.312h171.008zM640 148.992v598.016h-256v-598.016h256zM896 747.008h-171.008v-598.016h171.008q17.408 0 30.72 13.312t12.288 29.696v512q0 17.408-12.288 30.72t-30.72 12.288z" />
<glyph unicode="&#xe811;" glyph-name="icon-content-right" d="M683.008 916.992h169.984q53.248 0 91.136-36.864t36.864-91.136v-681.984q0-53.248-36.864-91.136t-91.136-36.864h-169.984q-53.248 0-91.136 36.864t-36.864 91.136v681.984q0 53.248 36.864 91.136t91.136 36.864zM171.008 404.992h169.984q53.248 0 91.136-36.864t36.864-91.136v-169.984q0-53.248-36.864-91.136t-91.136-36.864h-169.984q-53.248 0-91.136 36.864t-36.864 91.136v169.984q0 53.248 36.864 91.136t91.136 36.864zM340.992 320h-169.984q-18.432 0-30.72-12.288t-12.288-30.72v-169.984q0-18.432 12.288-30.72t30.72-12.288h169.984q18.432 0 30.72 12.288t12.288 30.72v169.984q0 18.432-12.288 30.72t-30.72 12.288zM171.008 916.992h169.984q53.248 0 91.136-36.864t36.864-91.136v-169.984q0-53.248-36.864-91.136t-91.136-36.864h-169.984q-53.248 0-91.136 36.864t-36.864 91.136v169.984q0 53.248 36.864 91.136t91.136 36.864zM340.992 832h-169.984q-18.432 0-30.72-12.288t-12.288-30.72v-169.984q0-18.432 12.288-30.72t30.72-12.288h169.984q18.432 0 30.72 12.288t12.288 30.72v169.984q0 18.432-12.288 30.72t-30.72 12.288zM852.992 832h-169.984q-18.432 0-30.72-12.288t-12.288-30.72v-681.984q0-18.432 12.288-30.72t30.72-12.288h169.984q18.432 0 30.72 12.288t12.288 30.72v681.984q0 18.432-12.288 30.72t-30.72 12.288z" />
<glyph unicode="&#xe812;" glyph-name="icon-contract" d="M724.992 916.992q18.432 0 30.72-12.288t12.288-29.696v-128q0-18.432 12.288-30.72t30.72-12.288h128q17.408 0 29.696-12.288t12.288-30.72-12.288-29.696-29.696-12.288h-128q-53.248 0-91.136 36.864t-36.864 91.136v128q0 17.408 12.288 29.696t29.696 12.288zM84.992 276.992h128q53.248 0 91.136-36.864t36.864-91.136v-128q0-17.408-12.288-29.696t-29.696-12.288-30.72 12.288-12.288 29.696v128q0 18.432-12.288 30.72t-30.72 12.288h-128q-17.408 0-29.696 12.288t-12.288 30.72 12.288 29.696 29.696 12.288zM299.008 916.992q17.408 0 29.696-12.288t12.288-29.696v-128q0-53.248-36.864-91.136t-91.136-36.864h-128q-17.408 0-29.696 12.288t-12.288 29.696 12.288 30.72 29.696 12.288h128q18.432 0 30.72 12.288t12.288 30.72v128q0 17.408 12.288 29.696t30.72 12.288zM811.008 276.992h128q17.408 0 29.696-12.288t12.288-29.696-12.288-30.72-29.696-12.288h-128q-18.432 0-30.72-12.288t-12.288-30.72v-128q0-17.408-12.288-29.696t-30.72-12.288-29.696 12.288-12.288 29.696v128q0 53.248 36.864 91.136t91.136 36.864z" />
<glyph unicode="&#xe813;" glyph-name="icon-done" d="M384 269.824l-178.176 178.176-60.416-60.416 238.592-238.592 512 512-60.416 60.416z" />
<glyph unicode="&#xe814;" glyph-name="icon-accordionslider1" d="M665.6 57.856h-293.888c-51.2 0-96.256 45.056-96.256 96.256v581.632c0 51.2 37.888 96.256 96.256 96.256h293.888c51.2 0 96.256-45.056 96.256-96.256v-581.632c0-58.368-45.056-96.256-96.256-96.256zM371.712 768.512c-19.456 0-32.768-13.312-32.768-32.768v-581.632c0-19.456 13.312-32.768 32.768-32.768h293.888c19.456 0 31.744 13.312 31.744 32.768v581.632c0 19.456-12.288 32.768-31.744 32.768h-293.888zM108.544 57.856v0c-18.432 0-31.744 12.288-31.744 31.744v710.656c0 19.456 13.312 31.744 31.744 31.744v0c19.456 0 32.768-12.288 32.768-31.744v-710.656c0-19.456-19.456-31.744-32.768-31.744zM927.744 57.856v0c-18.432 0-31.744 12.288-31.744 31.744v710.656c0 19.456 13.312 31.744 31.744 31.744v0c19.456 0 32.768-12.288 32.768-31.744v-710.656c-7.168-19.456-19.456-31.744-32.768-31.744z" />
<glyph unicode="&#xe815;" glyph-name="icon-cornersizes2" d="M724.992 916.992h128q53.248 0 91.136-36.864t36.864-91.136v-128q0-17.408-12.288-29.696t-29.696-12.288-30.72 12.288-12.288 29.696v128q0 18.432-12.288 30.72t-30.72 12.288h-128q-17.408 0-29.696 12.288t-12.288 30.72 12.288 29.696 29.696 12.288zM84.992 276.992q18.432 0 30.72-12.288t12.288-29.696v-128q0-18.432 12.288-30.72t30.72-12.288h128q17.408 0 29.696-12.288t12.288-30.72-12.288-29.696-29.696-12.288h-128q-53.248 0-91.136 36.864t-36.864 91.136v128q0 17.408 12.288 29.696t29.696 12.288zM171.008 916.992h128q17.408 0 29.696-12.288t12.288-29.696-12.288-30.72-29.696-12.288h-128q-18.432 0-30.72-12.288t-12.288-30.72v-128q0-17.408-12.288-29.696t-30.72-12.288-29.696 12.288-12.288 29.696v128q0 53.248 36.864 91.136t91.136 36.864zM939.008 276.992q17.408 0 29.696-12.288t12.288-29.696v-128q0-53.248-36.864-91.136t-91.136-36.864h-128q-17.408 0-29.696 12.288t-12.288 29.696 12.288 30.72 29.696 12.288h128q18.432 0 30.72 12.288t12.288 30.72v128q0 17.408 12.288 29.696t30.72 12.288z" />
<glyph unicode="&#xe816;" glyph-name="icon-expand-less" d="M512 619.008l-256-256 60.416-60.416 195.584 195.584 195.584-195.584 60.416 60.416z" />
<glyph unicode="&#xe817;" glyph-name="icon-expand-more" d="M707.584 593.408l-195.584-195.584-195.584 195.584-60.416-60.416 256-256 256 256z" />
<glyph unicode="&#xe818;" glyph-name="icon-addanimation" d="M505.856-38.4c-31.744 0-57.344 25.6-57.344 57.344s25.6 57.344 57.344 57.344c31.744 0 57.344-25.6 57.344-57.344-6.144-37.888-25.6-57.344-57.344-57.344zM505.856 38.4c-13.312 0-25.6-13.312-25.6-25.6s12.288-25.6 25.6-25.6 25.6 12.288 25.6 25.6c-6.144 12.288-13.312 25.6-25.6 25.6zM249.856 109.056c-57.344 0-108.544 51.2-108.544 108.544s51.2 108.544 108.544 108.544 108.544-51.2 108.544-108.544c0-57.344-51.2-108.544-108.544-108.544zM249.856 262.656c-25.6 0-45.056-19.456-45.056-45.056s19.456-45.056 45.056-45.056c25.6 0 45.056 19.456 45.056 45.056s-25.6 45.056-45.056 45.056zM166.912 461.312c-70.656 0-128 57.344-128 128s57.344 128 128 128 128-58.368 128-128c0-70.656-58.368-128-128-128zM166.912 652.8c-32.768 0-64.512-25.6-64.512-63.488s25.6-64.512 64.512-64.512 63.488 25.6 63.488 64.512-25.6 63.488-63.488 63.488zM557.056 640.512c-82.944 0-153.6 69.632-153.6 159.744s70.656 159.744 159.744 159.744c90.112 0 159.744-70.656 159.744-159.744s-76.8-159.744-165.888-159.744zM557.056 889.344c-51.2 0-96.256-44.032-96.256-95.232s45.056-90.112 96.256-90.112c51.2 0 96.256 45.056 96.256 96.256s-45.056 89.088-96.256 89.088zM844.8 217.6c-96.256 0-179.2 82.944-179.2 179.2s76.8 179.2 179.2 179.2 179.2-76.8 179.2-179.2-82.944-179.2-179.2-179.2zM844.8 505.344c-57.344 0-108.544-44.032-108.544-108.544 0-57.344 45.056-108.544 108.544-108.544s108.544 45.056 108.544 108.544c-6.144 57.344-51.2 108.544-108.544 108.544z" />
<glyph unicode="&#xe819;" glyph-name="icon-alert" d="M499.712 960c-13.312 0-32.768-12.288-38.912-31.744l-447.488-896c-7.168-7.168-13.312-19.456-13.312-32.768s0-18.432 6.144-31.744c13.312-19.456 38.912-31.744 58.368-31.744h896c25.6 0 44.032 12.288 57.344 31.744 6.144 13.312 6.144 19.456 6.144 31.744s-6.144 25.6-12.288 32.768l-448.512 896c-6.144 19.456-25.6 31.744-37.888 31.744zM960.512-0.512h-896l447.488 897.024 448.512-897.024zM543.744 621.056v-346.112c0-18.432-12.288-31.744-31.744-31.744v0c-19.456 0-31.744 13.312-31.744 31.744v346.112c0 19.456 12.288 31.744 31.744 31.744v0c19.456 0 31.744-12.288 31.744-31.744zM563.2 128.512c0-28.672-22.528-52.224-51.2-52.224s-51.2 23.552-51.2 52.224c0 27.648 22.528 51.2 51.2 51.2s51.2-23.552 51.2-51.2z" />
<glyph unicode="&#xe81a;" glyph-name="icon-file-xml" d="M448.512 384.512l-64.512 63.488-191.488-191.488 191.488-192.512 64.512 64.512-128 128zM576.512 128.512l63.488-64.512 192.512 192.512-192.512 191.488-63.488-63.488 128-128zM903.168 760.32l-142.336 143.36c-31.744 30.72-93.184 56.32-137.216 56.32h-479.232c-44.032 0-79.872-35.84-79.872-79.872v-864.256c0-44.032 35.84-79.872 79.872-79.872h735.232c44.032 0 80.896 35.84 80.896 79.872v608.256c0 44.032-25.6 105.472-57.344 136.192zM858.112 715.264c3.072-3.072 6.144-7.168 9.216-11.264h-162.816v163.84c4.096-3.072 8.192-6.144 11.264-9.216l142.336-143.36zM896 15.872c0-8.192-7.168-16.384-16.384-16.384h-735.232c-9.216 0-16.384 8.192-16.384 16.384v864.256c0 8.192 7.168 16.384 16.384 16.384h479.232c5.12 0 10.24-1.024 16.384-2.048v-253.952h253.952c1.024-6.144 2.048-11.264 2.048-16.384v-608.256z" />
<glyph unicode="&#xe81b;" glyph-name="icon-filter-list" d="M427.008 192h169.984v84.992h-169.984v-84.992zM128 704v-84.992h768v84.992h-768zM256 404.992h512v86.016h-512v-86.016z" />
<glyph unicode="&#xe81d;" glyph-name="icon-format-indent-decrease" d="M468.992 235.008h427.008v84.992h-427.008v-84.992zM128 448l171.008-171.008v342.016l-171.008-171.008zM128 64h768v84.992h-768v-84.992zM128 832v-84.992h768v84.992h-768zM468.992 576h427.008v84.992h-427.008v-84.992zM468.992 404.992h427.008v86.016h-427.008v-86.016z" />
<glyph unicode="&#xe81e;" glyph-name="icon-format-indent-increase" d="M128 64h768v84.992h-768v-84.992zM128 619.008v-342.016l171.008 171.008-171.008 171.008zM468.992 235.008h427.008v84.992h-427.008v-84.992zM128 832v-84.992h768v84.992h-768zM468.992 576h427.008v84.992h-427.008v-84.992zM468.992 404.992h427.008v86.016h-427.008v-86.016z" />
<glyph unicode="&#xe820;" glyph-name="icon-format-line-spacing" d="M256 660.992h106.496l-149.504 149.504-148.48-149.504h106.496v-425.984h-106.496l148.48-149.504 149.504 149.504h-106.496v425.984zM427.008 747.008v-86.016h512v86.016h-512zM427.008 148.992h512v86.016h-512v-86.016zM427.008 404.992h512v86.016h-512v-86.016z" />
<glyph unicode="&#xe821;" glyph-name="icon-format-list-bulleted" d="M171.008 512.512c-35.84 0-64.512-28.672-64.512-64.512s28.672-63.488 64.512-63.488 63.488 27.648 63.488 63.488-28.672 64.512-63.488 64.512zM171.008 768.512c-35.84 0-64.512-28.672-64.512-64.512s28.672-63.488 64.512-63.488 63.488 27.648 63.488 63.488-28.672 64.512-63.488 64.512zM171.008 249.344c-31.744 0-57.344-25.6-57.344-57.344s25.6-57.344 57.344-57.344 56.32 25.6 56.32 57.344-25.6 57.344-56.32 57.344zM299.008 148.992h596.992v86.016h-596.992v-86.016zM299.008 404.992h596.992v86.016h-596.992v-86.016zM299.008 747.008v-86.016h596.992v86.016h-596.992z" />
<glyph unicode="&#xe822;" glyph-name="icon-format-list-numbered" d="M84.992 235.008h86.016v-21.504h-43.008v-43.008h43.008v-21.504h-86.016v-41.984h128v169.984h-128v-41.984zM128 619.008h43.008v169.984h-86.016v-41.984h43.008v-128zM84.992 491.008h76.8l-76.8-90.112v-37.888h128v41.984h-76.8l76.8 90.112v37.888h-128v-41.984zM299.008 747.008v-86.016h596.992v86.016h-596.992zM299.008 148.992h596.992v86.016h-596.992v-86.016zM299.008 404.992h596.992v86.016h-596.992v-86.016z" />
<glyph unicode="&#xe823;" glyph-name="icon-alert1" d="M543.744 768.512v-429.056c0-19.456-12.288-31.744-31.744-31.744v0c-19.456 0-31.744 12.288-31.744 31.744v429.056c0 18.432 12.288 31.744 31.744 31.744v0c19.456 0 31.744-13.312 31.744-31.744zM588.8 95.744c0-41.984-34.816-76.8-76.8-76.8s-76.8 34.816-76.8 76.8c0 43.008 34.816 76.8 76.8 76.8s76.8-33.792 76.8-76.8z" />
<glyph unicode="&#xe825;" glyph-name="icon-aligncenter" d="M252.928 672.256v0c0 19.456 19.456 31.744 31.744 31.744h454.656c19.456 0 31.744-12.288 31.744-31.744v0c0-19.456-12.288-31.744-31.744-31.744h-454.656c-12.288 0-31.744 12.288-31.744 31.744zM124.928 416.256v0c0 19.456 19.456 31.744 31.744 31.744h710.656c19.456 0 31.744-12.288 31.744-31.744v0c0-19.456-12.288-31.744-31.744-31.744h-710.656c-12.288 0-31.744 12.288-31.744 31.744zM252.928 160.256v0c0 19.456 12.288 31.744 31.744 31.744h454.656c19.456 0 31.744-12.288 31.744-31.744v0c0-19.456-12.288-31.744-31.744-31.744h-454.656c-12.288 0-31.744 12.288-31.744 31.744z" />
<glyph unicode="&#xe827;" glyph-name="icon-insert-template" d="M384 768.512h128v-64.512h-128zM576.512 768.512h128v-64.512h-128zM896 768.512v-256h-191.488v63.488h128v128h-64.512v64.512zM320.512 576h128v-63.488h-128zM512 576h128v-63.488h-128zM192.512 704v-128h63.488v-63.488h-128v256h192.512v-64.512zM384 384.512h128v-64.512h-128zM576.512 384.512h128v-64.512h-128zM896 384.512v-256h-191.488v63.488h128v128h-64.512v64.512zM320.512 192h128v-63.488h-128zM512 192h128v-63.488h-128zM192.512 320v-128h63.488v-63.488h-128v256h192.512v-64.512zM960.512 896.512h-896v-897.024h896v897.024zM1024 960v0-1024h-1024v1024h1024z" />
<glyph unicode="&#xe829;" glyph-name="icon-laptop" d="M852.992 192c47.104 0 86.016 38.912 86.016 84.992v427.008c0 47.104-38.912 84.992-86.016 84.992h-681.984c-47.104 0-86.016-37.888-86.016-84.992v-427.008c0-46.080 38.912-84.992 86.016-84.992h-171.008v-84.992h1024v84.992h-171.008zM171.008 704h681.984v-427.008h-681.984v427.008z" />
<glyph unicode="&#xe82a;" glyph-name="icon-layers" d="M0 660.992l512 256 512-256-512-256zM512 138.752l415.744 207.872 96.256-48.128-512-256-512 256 96.256 48.128zM512 320l415.744 207.872 96.256-48.128-512-256-512 256 96.256 48.128zM833.536 660.992l-321.536 160.768-321.536-160.768 321.536-160.768z" />
<glyph unicode="&#xe82b;" glyph-name="icon-layout2" d="M171.008 916.992h681.984q53.248 0 91.136-36.864t36.864-91.136v-681.984q0-53.248-36.864-91.136t-91.136-36.864h-681.984q-53.248 0-91.136 36.864t-36.864 91.136v681.984q0 53.248 36.864 91.136t91.136 36.864zM340.992 64v512h-212.992v-468.992q0-18.432 12.288-30.72t30.72-12.288h169.984zM896 107.008v468.992h-468.992v-512h425.984q18.432 0 30.72 12.288t12.288 30.72zM852.992 832h-681.984q-18.432 0-30.72-12.288t-12.288-30.72v-128h768v128q0 18.432-12.288 30.72t-30.72 12.288z" />
<glyph unicode="&#xe82c;" glyph-name="icon-loader" d="M693.248 309.76q17.408 0 29.696-12.288l120.832-120.832q13.312-13.312 13.312-30.72t-13.312-29.696-29.696-13.312q-17.408 0-30.72 13.312l-119.808 120.832q-13.312 12.288-13.312 29.696 0 18.432 13.312 30.72t29.696 12.288zM330.752 309.76q18.432 0 30.72-12.288t12.288-30.72-12.288-29.696l-120.832-120.832q-13.312-13.312-30.72-13.312t-29.696 13.312-12.288 29.696q0 18.432 12.288 30.72l120.832 120.832q12.288 12.288 29.696 12.288zM84.992 491.008h171.008q17.408 0 30.72-12.288t12.288-30.72-12.288-29.696-30.72-13.312h-171.008q-17.408 0-29.696 13.312t-12.288 29.696 12.288 30.72 29.696 12.288zM512 235.008q17.408 0 30.72-12.288t12.288-30.72v-171.008q0-17.408-12.288-29.696t-30.72-12.288-29.696 12.288-13.312 29.696v171.008q0 17.408 13.312 30.72t29.696 12.288zM209.92 793.088q17.408 0 30.72-13.312l120.832-120.832q12.288-12.288 12.288-29.696t-12.288-29.696-30.72-13.312q-17.408 0-29.696 13.312l-120.832 119.808q-12.288 12.288-12.288 30.72 0 17.408 12.288 29.696t29.696 13.312zM768 491.008h171.008q17.408 0 29.696-12.288t12.288-30.72-12.288-29.696-29.696-13.312h-171.008q-17.408 0-29.696 13.312t-13.312 29.696 13.312 30.72 29.696 12.288zM512 916.992q17.408 0 30.72-12.288t12.288-29.696v-171.008q0-17.408-12.288-29.696t-30.72-13.312-29.696 13.312-13.312 29.696v171.008q0 17.408 13.312 29.696t29.696 12.288zM814.080 793.088q17.408 0 29.696-13.312t13.312-29.696q0-17.408-13.312-30.72l-120.832-119.808q-12.288-13.312-29.696-13.312-18.432 0-30.72 12.288t-12.288 30.72q0 17.408 13.312 29.696l119.808 120.832q13.312 13.312 30.72 13.312z" />
<glyph unicode="&#xe82d;" glyph-name="icon-alignleft" d="M0 672.256v0c0 19.456 19.456 31.744 31.744 31.744h454.656c19.456 0 31.744-12.288 31.744-31.744v0c0-19.456-12.288-31.744-31.744-31.744h-454.656c-12.288 0-31.744 12.288-31.744 31.744zM0 416.256v0c0 19.456 19.456 31.744 31.744 31.744h710.656c19.456 0 31.744-12.288 31.744-31.744v0c0-19.456-12.288-31.744-31.744-31.744h-710.656c-12.288 0-31.744 12.288-31.744 31.744zM0 160.256v0c0 19.456 13.312 31.744 31.744 31.744h454.656c19.456 0 31.744-12.288 31.744-31.744v0c0-19.456-12.288-31.744-31.744-31.744h-454.656c-12.288 0-31.744 12.288-31.744 31.744z" />
<glyph unicode="&#xe82f;" glyph-name="icon-minimize" d="M84.992 916.992q18.432 0 30.72-12.288l268.288-268.288v195.584q0 18.432 12.288 30.72t30.72 12.288 29.696-12.288 12.288-30.72v-297.984q0-18.432-12.288-30.72t-30.72-12.288h-297.984q-18.432 0-30.72 12.288t-12.288 29.696 12.288 30.72 30.72 12.288h195.584l-268.288 268.288q-12.288 12.288-12.288 30.72t12.288 30.72 29.696 11.264zM598.016 404.992h297.984q18.432 0 30.72-12.288t12.288-29.696-12.288-30.72-30.72-12.288h-195.584l268.288-268.288q12.288-12.288 12.288-30.72t-12.288-29.696-29.696-12.288q-18.432 0-30.72 12.288l-268.288 268.288v-195.584q0-18.432-12.288-30.72t-30.72-12.288-29.696 12.288-12.288 30.72v297.984q0 18.432 12.288 30.72t30.72 12.288z" />
<glyph unicode="&#xe830;" glyph-name="icon-desktop2" d="M171.008 875.008h681.984q53.248 0 91.136-37.888t36.864-90.112v-427.008q0-53.248-36.864-90.112t-91.136-37.888h-297.984v-84.992h128q17.408 0 29.696-12.288t12.288-30.72-12.288-30.72-29.696-12.288h-342.016q-17.408 0-29.696 12.288t-12.288 30.72 12.288 30.72 29.696 12.288h128v84.992h-297.984q-53.248 0-91.136 37.888t-36.864 90.112v427.008q0 52.224 36.864 90.112t91.136 37.888zM852.992 788.992h-681.984q-18.432 0-30.72-12.288t-12.288-29.696v-427.008q0-17.408 12.288-29.696t30.72-13.312h681.984q18.432 0 30.72 13.312t12.288 29.696v427.008q0 17.408-12.288 29.696t-30.72 12.288z" />
<glyph unicode="&#xe831;" glyph-name="icon-alignright" d="M505.856 672.256v0c0 19.456 19.456 31.744 31.744 31.744h454.656c19.456 0 31.744-12.288 31.744-31.744v0c0-19.456-12.288-31.744-31.744-31.744h-454.656c-12.288 0-31.744 12.288-31.744 31.744zM249.856 416.256v0c0 19.456 19.456 31.744 31.744 31.744h710.656c19.456 0 31.744-12.288 31.744-31.744v0c0-19.456-12.288-31.744-31.744-31.744h-710.656c-12.288 0-31.744 12.288-31.744 31.744zM505.856 160.256v0c0 19.456 12.288 31.744 31.744 31.744h454.656c19.456 0 31.744-12.288 31.744-31.744v0c0-19.456-12.288-31.744-31.744-31.744h-454.656c-12.288 0-31.744 12.288-31.744 31.744z" />
<glyph unicode="&#xe832;" glyph-name="widget_archive" d="M678.912 672.256v0c0-19.456-13.312-31.744-32.768-31.744h-268.288c-19.456 0-31.744 12.288-31.744 31.744v0c0 19.456 12.288 31.744 31.744 31.744h275.456c12.288 0 25.6-19.456 25.6-31.744zM678.912 192v0c0-19.456-13.312-31.744-32.768-31.744h-268.288c-19.456 0-31.744 12.288-31.744 31.744v0c0 19.456 12.288 31.744 31.744 31.744h275.456c12.288 0 25.6-18.432 25.6-31.744zM960.512-64h-903.168c-31.744 0-57.344 25.6-57.344 57.344v903.168c0 31.744 25.6 57.344 57.344 57.344h909.312c31.744 0 57.344-31.744 57.344-57.344v-903.168c0-31.744-25.6-57.344-63.488-57.344zM64.512-0.512h896v889.856h-896v-889.856zM31.744 479.744h960.512v-63.488h-960.512v63.488z" />
<glyph unicode="&#xe833;" glyph-name="icon-paragraph1" d="M427.008 916.992h384q17.408 0 29.696-12.288t12.288-29.696v-854.016q0-17.408-12.288-29.696t-29.696-12.288-30.72 12.288-12.288 29.696v811.008h-84.992v-811.008q0-17.408-13.312-29.696t-29.696-12.288-29.696 12.288-13.312 29.696v384h-169.984q-69.632 0-129.024 34.816t-93.184 93.184-33.792 128 33.792 129.024 93.184 93.184 129.024 33.792zM596.992 491.008v340.992h-169.984q-70.656 0-120.832-50.176t-50.176-120.832 50.176-119.808 120.832-50.176h169.984z" />
<glyph unicode="&#xe834;" glyph-name="widget_archive1" d="M915.456-64h-806.912c-31.744 0-57.344 25.6-57.344 57.344v570.368h921.6v-570.368c0-12.288-6.144-31.744-12.288-37.888-13.312-13.312-25.6-19.456-45.056-19.456zM115.712 499.2v-505.856h793.6v505.856h-793.6zM0 928.256v-224.256c0-19.456 13.312-31.744 31.744-31.744h960.512c19.456 0 31.744 12.288 31.744 31.744v224.256c0 19.456-12.288 31.744-31.744 31.744h-960.512c-18.432 0-31.744-12.288-31.744-31.744zM960.512 896.512v-160.768h-896v160.768h896zM755.712 326.144v0c0-18.432-13.312-31.744-32.768-31.744h-409.6c-18.432 0-31.744 13.312-31.744 31.744v0c0 19.456 13.312 32.768 31.744 32.768h409.6c19.456 0 32.768-19.456 32.768-32.768z" />
<glyph unicode="&#xe835;" glyph-name="icon-phone1" d="M768 960h-512c-53.248 0-96.256-43.008-96.256-96.256v-831.488c0-53.248 43.008-96.256 96.256-96.256h512c53.248 0 96.256 43.008 96.256 96.256v831.488c0 53.248-43.008 96.256-96.256 96.256zM799.744 32.256c0-18.432-14.336-32.768-31.744-32.768h-512c-17.408 0-31.744 14.336-31.744 32.768v63.488h575.488v-63.488zM799.744 128.512h-575.488v640h575.488v-640zM799.744 800.256h-575.488v63.488c0 18.432 14.336 32.768 31.744 32.768h512c17.408 0 31.744-14.336 31.744-32.768v-63.488zM576.512 848.384c0-9.216-7.168-16.384-16.384-16.384h-96.256c-8.192 0-15.36 7.168-15.36 16.384v0c0 8.192 7.168 15.36 15.36 15.36h96.256c9.216 0 16.384-7.168 16.384-15.36v0zM543.744 47.616c0-8.192-7.168-15.36-15.36-15.36h-32.768c-8.192 0-15.36 7.168-15.36 15.36v0c0 9.216 7.168 16.384 15.36 16.384h32.768c8.192 0 15.36-7.168 15.36-16.384v0z" />
<glyph unicode="&#xe836;" glyph-name="icon-audio" d="M512 908.8c249.856 0 460.8-210.944 460.8-460.8s-204.8-460.8-460.8-460.8-460.8 204.8-460.8 460.8 210.944 460.8 460.8 460.8zM512 960c-281.6 0-512-230.4-512-512s230.4-512 512-512 512 230.4 512 512-230.4 512-512 512v0zM671.744 666.112c-12.288 0-25.6-7.168-37.888-13.312l-173.056-96.256h-134.144c-45.056 0-82.944-37.888-82.944-82.944v-51.2c0-45.056 37.888-82.944 82.944-82.944h134.144l173.056-96.256c12.288-6.144 25.6-12.288 37.888-12.288 32.768 0 51.2 25.6 51.2 63.488v313.344c0 32.768-18.432 58.368-51.2 58.368zM671.744 313.856c0-19.456-12.288-25.6-31.744-19.456l-128 70.656c-19.456 6.144-31.744 19.456-37.888 19.456s-7.168 0-7.168 0c-6.144 0-25.6 0-44.032 0h-102.4c-19.456 0-32.768 12.288-32.768 31.744v51.2c0 19.456 13.312 31.744 32.768 31.744h102.4c18.432 0 37.888 0 37.888 0 6.144 0 6.144 0 13.312 6.144 6.144 0 18.432 13.312 37.888 19.456l134.144 70.656c19.456 6.144 32.768 0 32.768-19.456v-262.144h-7.168z" />
<glyph unicode="&#xe837;" glyph-name="icon-quote" d="M512 863.744c-229.376 0-415.744-186.368-415.744-415.744s186.368-415.744 415.744-415.744 415.744 186.368 415.744 415.744-186.368 415.744-415.744 415.744zM512 95.744c-194.56 0-352.256 157.696-352.256 352.256s157.696 352.256 352.256 352.256 352.256-157.696 352.256-352.256-157.696-352.256-352.256-352.256zM468.992 583.168c-21.504 23.552-47.104 35.84-77.824 35.84s-56.32-11.264-76.8-32.768c-8.192-8.192-14.336-18.432-19.456-30.72s-7.168-24.576-7.168-36.864c0-25.6 7.168-47.104 21.504-64.512s32.768-28.672 56.32-31.744l8.192-1.024 6.144-1.024c11.264-1.024 16.384-5.12 16.384-12.288s-7.168-18.432-21.504-32.768c-14.336-16.384-37.888-32.768-70.656-50.176-13.312-6.144-19.456-15.36-19.456-25.6 0-7.168 2.048-12.288 6.144-17.408 5.12-4.096 10.24-6.144 17.408-6.144 18.432 0 41.984 10.24 73.728 30.72 35.84 23.552 65.536 53.248 87.040 87.040 22.528 34.816 32.768 68.608 32.768 102.4 0 15.36-2.048 31.744-8.192 47.104s-14.336 29.696-24.576 39.936zM720.896 583.168c-21.504 23.552-47.104 35.84-76.8 35.84-31.744 0-57.344-11.264-76.8-32.768-8.192-8.192-14.336-19.456-19.456-30.72s-7.168-24.576-7.168-36.864c0-25.6 7.168-47.104 21.504-64.512s31.744-28.672 55.296-31.744l8.192-1.024 6.144-1.024c10.24-1.024 16.384-5.12 16.384-12.288s-7.168-18.432-20.48-32.768c-15.36-16.384-37.888-32.768-70.656-50.176-13.312-6.144-20.48-15.36-20.48-25.6 0-7.168 3.072-12.288 7.168-17.408 5.12-4.096 10.24-6.144 17.408-6.144 17.408 0 41.984 10.24 72.704 30.72 36.864 23.552 65.536 53.248 88.064 87.040 21.504 34.816 31.744 68.608 31.744 102.4 0 15.36-3.072 31.744-8.192 47.104-6.144 16.384-14.336 29.696-24.576 39.936z" />
<glyph unicode="&#xe838;" glyph-name="icon-quote1" d="M512 863.744c-229.376 0-415.744-186.368-415.744-415.744s186.368-415.744 415.744-415.744 415.744 186.368 415.744 415.744-186.368 415.744-415.744 415.744zM512 95.744c-194.56 0-352.256 157.696-352.256 352.256s157.696 352.256 352.256 352.256 352.256-157.696 352.256-352.256-157.696-352.256-352.256-352.256zM466.944 570.88c13.312 7.168 20.48 15.36 20.48 25.6 0 7.168-3.072 12.288-7.168 17.408s-10.24 6.144-17.408 6.144c-17.408 0-41.984-10.24-72.704-30.72-36.864-23.552-65.536-53.248-88.064-87.040s-31.744-68.608-31.744-102.4c0-15.36 3.072-31.744 8.192-47.104 6.144-15.36 14.336-28.672 24.576-39.936 21.504-23.552 47.104-35.84 76.8-35.84 31.744 0 57.344 11.264 76.8 32.768 8.192 8.192 14.336 19.456 19.456 31.744s7.168 23.552 7.168 35.84c0 25.6-7.168 47.104-21.504 65.536s-31.744 28.672-55.296 31.744h-8.192l-6.144 1.024c-10.24 2.048-16.384 6.144-16.384 12.288 0 7.168 7.168 18.432 21.504 33.792s36.864 31.744 69.632 49.152zM719.872 570.88c13.312 7.168 20.48 15.36 20.48 25.6 0 7.168-3.072 12.288-7.168 17.408s-10.24 6.144-17.408 6.144c-17.408 0-41.984-10.24-73.728-30.72-35.84-23.552-65.536-53.248-87.040-87.040s-32.768-68.608-32.768-102.4c0-15.36 3.072-31.744 8.192-47.104 6.144-15.36 14.336-28.672 24.576-39.936 21.504-23.552 47.104-35.84 77.824-35.84s56.32 11.264 76.8 32.768c8.192 8.192 14.336 19.456 19.456 30.72 5.12 12.288 7.168 24.576 7.168 36.864 0 25.6-7.168 47.104-21.504 64.512s-32.768 28.672-56.32 32.768h-7.168l-7.168 1.024c-10.24 2.048-16.384 6.144-16.384 12.288 0 7.168 7.168 18.432 21.504 33.792 15.36 15.36 37.888 31.744 70.656 49.152z" />
<glyph unicode="&#xe839;" glyph-name="icon-settings-ethernet" d="M331.776 671.232l-65.536 55.296-231.424-278.528 231.424-278.528 65.536 55.296-185.344 223.232 185.344 223.232zM299.008 404.992h84.992v86.016h-84.992v-86.016zM724.992 491.008h-84.992v-86.016h84.992v86.016zM468.992 404.992h86.016v86.016h-86.016v-86.016zM757.76 726.528l-65.536-54.272 186.368-224.256-186.368-223.232 65.536-54.272 231.424 277.504-231.424 278.528z" />
<glyph unicode="&#xe83a;" glyph-name="icon-backgroundposition" d="M947.2-64h-582.656c-25.6 0-57.344 25.6-57.344 57.344v454.656c0 25.6 25.6 57.344 57.344 57.344h582.656c25.6 0 57.344-25.6 57.344-57.344v-460.8c-6.144-25.6-31.744-51.2-57.344-51.2zM371.712-6.656h563.2v448.512h-563.2v-448.512zM13.312 223.744l37.888 32.768v76.8l-45.056-13.312c0 0 0-19.456 0-45.056 7.168-25.6 7.168-51.2 7.168-51.2zM134.144 154.112l19.456 44.032c0 0-19.456 0-37.888 0-7.168 0-19.456 0-25.6 0s-7.168 7.168-7.168 7.168l-37.888-38.912c0 0 6.144 0 12.288-6.144s19.456-6.144 25.6-6.144c25.6 0 51.2 0 51.2 0zM301.056 154.112v44.032h-82.944l-7.168-44.032zM13.312 704l44.032-6.144v76.8l-44.032 19.456c0 0 0-19.456 0-45.056 0-19.456 0-45.056 0-45.056zM13.312 633.344h44.032v-89.088h-44.032v89.088zM13.312 390.656h44.032v89.088h-44.032zM320.512 922.112l-13.312-45.056h76.8l25.6 45.056c0 0-19.456 0-45.056 0-18.432 0-44.032 0-44.032 0zM153.6 922.112l19.456-45.056h76.8l-6.144 45.056zM13.312 870.912l44.032-38.912c0 0 0 0 0 13.312 0 6.144 7.168 12.288 13.312 18.432s19.456 7.168 25.6 7.168 12.288 0 12.288 0l-25.6 51.2c0 0-6.144 0-12.288 0s-19.456 0-31.744-7.168-13.312-25.6-19.456-31.744c0-6.144-6.144-12.288-6.144-12.288zM466.944 595.456h45.056v-90.112h-45.056v90.112zM512 755.2l-45.056-12.288v-83.968h45.056zM480.256 908.8l-38.912-45.056c0 0 0 0 7.168-6.144 0-6.144 6.144-12.288 12.288-25.6 0-19.456 0-37.888 0-37.888l45.056 25.6c0 0 0 6.144 0 12.288s0 19.456 0 31.744c6.144 13.312 0 25.6-6.144 32.768-13.312 6.144-19.456 12.288-19.456 12.288z" />
<glyph unicode="&#xe83b;" glyph-name="icon-spellcheck" d="M531.456 276.992h89.088l-218.112 555.008h-78.848l-218.112-555.008h89.088l48.128 128h240.64l48.128-128zM274.432 491.008l88.064 235.52 88.064-235.52h-176.128zM920.576 465.408l-344.064-345.088-156.672 156.672-60.416-60.416 217.088-217.088 404.48 405.504-60.416 60.416z" />
<glyph unicode="&#xe83c;" glyph-name="icon-star-outline" d="M939.008 565.76l-307.2 26.624-119.808 282.624-119.808-283.648-307.2-25.6 233.472-201.728-70.656-300.032 264.192 158.72 263.168-158.72-68.608 300.032 232.448 201.728zM512 302.592l-160.768-96.256 43.008 182.272-141.312 122.88 186.368 16.384 72.704 172.032 72.704-172.032 187.392-16.384-142.336-122.88 43.008-183.296-160.768 97.28z" />
<glyph unicode="&#xe83d;" glyph-name="icon-colorfont" d="M212.992 235.008v-86.016h598.016v86.016h-598.016zM405.504 414.208h212.992l38.912-94.208h89.088l-202.752 468.992h-63.488l-202.752-468.992h89.088l38.912 94.208zM512 705.024l79.872-214.016h-159.744l79.872 214.016z" />
<glyph unicode="&#xe83e;" glyph-name="icon-text-height" d="M896 192h128l-159.744-192.512-159.744 192.512h128v512h-128l159.744 192.512 159.744-192.512h-128zM640 896.512v-256l-63.488 128h-192.512v-704.512h128v-64.512h-384v64.512h128v704.512h-191.488l-64.512-128v256z" />
<glyph unicode="&#xe83f;" glyph-name="icon-text-width" d="M256 64v-128l-191.488 159.744 191.488 160.768v-128h512v128l192.512-160.768-192.512-159.744v128zM832.512 896.512v-256l-64.512 128h-191.488v-448.512h128v-63.488h-384v63.488h128v448.512h-192.512l-63.488-128v256z" />
<glyph unicode="&#xe840;" glyph-name="icon-underline" d="M704.512 896.512h128v-416.768c0-158.72-143.36-287.744-320.512-287.744s-319.488 129.024-319.488 287.744v416.768h128v-416.768c0-39.936 17.408-78.848 51.2-108.544 36.864-32.768 87.040-51.2 140.288-51.2s103.424 18.432 140.288 51.2c33.792 29.696 52.224 68.608 52.224 108.544v416.768zM192.512 128.512h640v-129.024h-640z" />
<glyph unicode="&#xe841;" glyph-name="icon-user-female" d="M960.512 157.184l-278.528 132.096c36.864 18.432 182.272 24.576 193.536 57.344 0 0-57.344 88.064-70.656 202.752-6.144 44.032-15.36 102.4-24.576 184.32-14.336 133.12-126.976 226.304-268.288 226.304 0 0 0 0 0 0s0 0 0 0c-141.312 0-252.928-93.184-268.288-226.304-9.216-81.92-18.432-140.288-24.576-184.32-13.312-114.688-70.656-202.752-70.656-202.752 12.288-32.768 156.672-38.912 194.56-57.344l-278.528-132.096c0 0-64.512-22.528-64.512-75.776v-83.968c0-35.84 28.672-61.44 64.512-61.44h896c34.816 0 63.488 25.6 63.488 61.44v83.968c0 53.248-63.488 75.776-63.488 75.776zM64.512-0.512v81.92c0 4.096 11.264 12.288 21.504 15.36 2.048 1.024 3.072 2.048 5.12 3.072l278.528 132.096c22.528 10.24 36.864 32.768 36.864 57.344s-13.312 46.080-35.84 57.344c-21.504 11.264-50.176 16.384-95.232 24.576-10.24 1.024-24.576 4.096-38.912 7.168 18.432 40.96 38.912 98.304 47.104 163.84 1.024 15.36 4.096 33.792 7.168 54.272 4.096 33.792 10.24 77.824 16.384 130.048 11.264 99.328 95.232 169.984 204.8 169.984 0 0 0 0 0 0s0 0 0 0c109.568 0 193.536-70.656 204.8-169.984 6.144-52.224 12.288-96.256 16.384-130.048 3.072-20.48 6.144-38.912 8.192-54.272 7.168-65.536 27.648-122.88 46.080-163.84-14.336-3.072-28.672-6.144-38.912-7.168-45.056-8.192-73.728-13.312-95.232-24.576-22.528-11.264-35.84-33.792-35.84-57.344 0-24.576 14.336-47.104 36.864-57.344l278.528-132.096c2.048-1.024 3.072-2.048 5.12-3.072 10.24-3.072 20.48-11.264 22.528-15.36v-81.92h-896z" />
<glyph unicode="&#xe842;" glyph-name="icon-twitter1" d="M528.384 896.512v-224.256h224.256v-96.256h-223.232l-1.024-278.528c0-51.2 3.072-84.992 8.192-99.328 9.216-23.552 39.936-53.248 97.28-53.248 45.056 0 105.472 13.312 150.528 47.104v-148.48c-37.888-18.432-72.704-25.6-103.424-32.768s-63.488-11.264-99.328-11.264c-38.912 0-153.6 1.024-200.704 120.832-8.192 21.504-12.288 52.224-12.288 93.184v362.496h-129.024l1.024 98.304c41.984 0 169.984 25.6 169.984 222.208h117.76zM528.384 960h-117.76c-34.816 0-63.488-28.672-63.488-63.488 0-146.432-81.92-157.696-106.496-157.696-35.84 0-64.512-28.672-64.512-64.512v-97.28c0-17.408 6.144-33.792 18.432-46.080s28.672-18.432 45.056-18.432h65.536v-299.008c0-49.152 5.12-87.040 16.384-116.736 28.672-73.728 97.28-160.768 260.096-160.768 40.96 0 78.848 4.096 113.664 12.288l7.168 2.048c29.696 6.144 68.608 15.36 109.568 34.816 22.528 10.24 35.84 32.768 35.84 58.368v148.48c0 24.576-13.312 47.104-34.816 57.344-9.216 5.12-19.456 7.168-28.672 7.168-13.312 0-27.648-4.096-38.912-13.312-37.888-27.648-86.016-33.792-111.616-33.792s-34.816 9.216-36.864 11.264c-1.024 5.12-4.096 23.552-4.096 76.8v215.040h159.744c34.816 0 63.488 28.672 63.488 63.488v96.256c0 35.84-28.672 64.512-63.488 64.512h-160.768v159.744c0 34.816-28.672 63.488-63.488 63.488v0z" />
<glyph unicode="&#xe843;" glyph-name="icon-facebook1" d="M581.632 879.104c4.096 0 6.144 0 6.144 0h83.968l-1.024-95.232h-82.944c-45.056 0-44.032-39.936-44.032-39.936v-151.552h160.768l-22.528-96.256h-139.264v-479.232h-96.256v479.232h-126.976v96.256h126.976c0 0 0 116.736 0 149.504 0 130.048 108.544 137.216 135.168 137.216zM671.744 879.104v0zM581.632 943.616v0c-22.528 0-67.584-4.096-110.592-29.696-39.936-24.576-88.064-73.728-88.064-172.032v-86.016h-63.488c-17.408 0-33.792-6.144-46.080-18.432-11.264-12.288-18.432-28.672-18.432-45.056v-96.256c1.024-34.816 29.696-63.488 64.512-63.488h63.488v-415.744c0-35.84 28.672-64.512 63.488-64.512h96.256c35.84 0 64.512 28.672 64.512 64.512v415.744h74.752c28.672 0 54.272 18.432 61.44 46.080l22.528 95.232c6.144 19.456 2.048 40.96-10.24 56.32-11.264 16.384-30.72 25.6-51.2 25.6h-97.28v63.488h63.488c35.84 0 64.512 28.672 64.512 63.488v93.184c0 1.024 0 2.048 0 3.072 0 35.84-28.672 64.512-63.488 64.512h-81.92c-2.048 0-5.12 0-8.192 0v0z" />
<glyph unicode="&#xe844;" glyph-name="icon-social-dropbox" d="M1022.976 735.744c0 10.24-6.144 19.456-14.336 24.576l-285.696 178.176c-11.264 7.168-25.6 6.144-36.864-3.072l-174.080-140.288-174.080 140.288c-10.24 9.216-25.6 10.24-36.864 3.072l-285.696-178.176c-8.192-5.12-14.336-14.336-14.336-24.576s3.072-20.48 11.264-27.648l164.864-138.24-141.312-111.616c-8.192-6.144-13.312-16.384-12.288-26.624s5.12-19.456 14.336-24.576l131.072-88.064c-7.168-5.12-11.264-13.312-11.264-23.552v-128c0-11.264 6.144-21.504 15.36-27.648l322.56-182.272c5.12-3.072 10.24-4.096 16.384-4.096s11.264 1.024 16.384 4.096l318.464 182.272c9.216 6.144 15.36 16.384 15.36 27.648v150.528c0 2.048 0 4.096-1.024 6.144l124.928 82.944c8.192 5.12 13.312 14.336 14.336 24.576s-4.096 20.48-12.288 26.624l-141.312 111.616 164.864 138.24c8.192 7.168 12.288 16.384 12.288 26.624zM736.256 569.856l-224.256-141.312-224.256 141.312 224.256 145.408 224.256-145.408zM87.040 729.6l228.352 142.336 142.336-115.712-227.328-147.456-143.36 120.832zM230.4 529.92l225.28-141.312-128-98.304-218.112 145.408 120.832 94.208zM222.208 284.16l89.088-59.392c11.264-8.192 26.624-7.168 36.864 1.024l130.048 98.304v-282.624l-256 144.384v98.304zM798.72 185.856l-257.024-146.432v287.744l133.12-101.376c5.12-5.12 12.288-7.168 19.456-7.168 6.144 0 12.288 2.048 17.408 6.144l87.040 57.344v-96.256zM913.408 435.712l-218.112-145.408-126.976 98.304 225.28 141.312 119.808-94.208zM793.6 608.768l-227.328 147.456 142.336 115.712 228.352-142.336-143.36-120.832z" />
<glyph unicode="&#xe845;" glyph-name="icon-social-dribbble" d="M512 960c-69.632 0-136.192-14.336-197.632-39.936-2.048-1.024-4.096-1.024-6.144-2.048-181.248-78.848-308.224-260.096-308.224-470.016 0-281.6 229.376-512 512-512s512 230.4 512 512c0 282.624-229.376 512-512 512zM959.488 448c0-3.072 0-7.168 0-10.24-49.152 12.288-173.056 36.864-326.656 3.072-13.312 30.72-28.672 62.464-45.056 95.232-2.048 3.072-3.072 5.12-4.096 8.192 163.84 62.464 233.472 148.48 262.144 201.728 70.656-79.872 113.664-183.296 113.664-297.984zM797.696 793.088c-15.36-35.84-69.632-126.976-244.736-192.512-78.848 144.384-140.288 230.4-175.104 274.432 43.008 13.312 88.064 20.48 134.144 20.48 108.544 0 207.872-38.912 285.696-102.4zM316.416 850.432c26.624-32.768 90.112-116.736 175.104-270.336-200.704-60.416-362.496-53.248-418.816-48.128 26.624 140.288 118.784 258.048 243.712 318.464zM64.512 448c0 7.168 0 13.312 0 20.48 19.456-2.048 49.152-4.096 89.088-4.096 86.016 0 217.088 11.264 368.64 58.368 3.072-5.12 5.12-11.264 8.192-16.384 14.336-27.648 27.648-55.296 39.936-81.92-27.648-8.192-55.296-19.456-83.968-31.744-182.272-82.944-268.288-200.704-299.008-252.928-75.776 80.896-122.88 189.44-122.88 308.224zM236.544 95.744c15.36 30.72 90.112 154.624 276.48 238.592 27.648 12.288 55.296 22.528 81.92 30.72 60.416-154.624 81.92-281.6 88.064-330.752-52.224-21.504-110.592-33.792-171.008-33.792-104.448 0-199.68 35.84-275.456 95.232zM743.424 65.024c-9.216 61.44-31.744 177.152-86.016 315.392 148.48 29.696 266.24 1.024 295.936-8.192-22.528-130.048-100.352-240.64-209.92-307.2z" />
<glyph unicode="&#xe846;" glyph-name="icon-tablet" d="M832.512 960h-641.024c-52.224 0-95.232-43.008-95.232-96.256v-831.488c0-53.248 43.008-96.256 95.232-96.256h641.024c52.224 0 95.232 43.008 95.232 96.256v831.488c0 53.248-43.008 96.256-95.232 96.256zM864.256 32.256c0-18.432-14.336-32.768-31.744-32.768h-641.024c-17.408 0-31.744 14.336-31.744 32.768v831.488c0 18.432 14.336 32.768 31.744 32.768h641.024c17.408 0 31.744-14.336 31.744-32.768v-831.488zM512 160.256c-34.816 0-63.488-28.672-63.488-64.512s28.672-63.488 63.488-63.488c35.84 0 63.488 28.672 63.488 63.488s-27.648 64.512-63.488 64.512zM576.512 863.744h-128c-18.432 0-32.768-14.336-32.768-31.744s14.336-31.744 32.768-31.744h128c17.408 0 31.744 14.336 31.744 31.744s-14.336 31.744-31.744 31.744z" />
<glyph unicode="&#xe847;" glyph-name="icon-volume-2" d="M574.464 894.464c-10.24 5.12-22.528 5.12-32.768-2.048l-321.536-251.904h-106.496c-54.272 0-98.304-38.912-98.304-87.040l1.024-210.944c0-47.104 45.056-86.016 99.328-86.016h106.496l319.488-252.928c5.12-3.072 11.264-5.12 17.408-5.12 5.12 0 10.24 1.024 15.36 3.072 10.24 6.144 17.408 16.384 17.408 28.672v835.584c0 12.288-7.168 22.528-17.408 28.672zM527.36 90.624l-277.504 224.256c-5.12 4.096-11.264 5.12-17.408 5.12h-116.736c-20.48 0-34.816 12.288-34.816 22.528l-2.048 211.968c0 10.24 14.336 21.504 34.816 21.504h116.736c6.144 0 12.288 2.048 17.408 6.144l279.552 223.232v-714.752zM848.896 442.88c0 84.992-58.368 155.648-139.264 169.984-17.408 2.048-33.792-9.216-36.864-26.624s9.216-33.792 26.624-36.864c50.176-8.192 84.992-52.224 84.992-106.496 0-52.224-35.84-97.28-86.016-107.52-17.408-3.072-28.672-19.456-25.6-36.864 3.072-15.36 16.384-25.6 31.744-25.6 2.048 0 4.096 0 6.144 0 79.872 16.384 138.24 87.040 138.24 169.984zM805.888 735.744c-16.384 6.144-34.816-2.048-40.96-18.432s2.048-34.816 18.432-40.96c97.28-35.84 161.792-130.048 161.792-233.472 0-104.448-64.512-198.656-161.792-234.496-16.384-6.144-24.576-24.576-18.432-40.96 5.12-13.312 17.408-20.48 29.696-20.48 4.096 0 8.192 0 11.264 2.048 121.856 45.056 202.752 162.816 202.752 293.888s-80.896 247.808-202.752 292.864z" />
<glyph unicode="&#xe848;" glyph-name="icon-volume-off" d="M575.488 894.464c-10.24 5.12-22.528 5.12-32.768-2.048l-321.536-251.904h-106.496c-54.272 0-98.304-38.912-98.304-87.040l1.024-210.944c0-47.104 45.056-86.016 99.328-86.016h106.496l319.488-252.928c5.12-3.072 11.264-5.12 17.408-5.12 5.12 0 10.24 1.024 15.36 3.072 10.24 6.144 17.408 16.384 17.408 28.672v835.584c0 12.288-7.168 22.528-17.408 28.672zM528.384 90.624l-277.504 224.256c-5.12 4.096-11.264 5.12-17.408 5.12h-116.736c-20.48 0-34.816 12.288-34.816 22.528l-2.048 211.968c0 10.24 14.336 21.504 34.816 21.504h116.736c6.144 0 12.288 2.048 17.408 6.144l279.552 223.232v-714.752zM893.952 448l104.448 105.472c12.288 12.288 12.288 32.768 0 45.056s-32.768 12.288-45.056 0l-104.448-105.472-104.448 105.472c-12.288 12.288-32.768 12.288-45.056 0s-12.288-32.768 0-45.056l104.448-105.472-103.424-105.472c-12.288-12.288-12.288-32.768 0-45.056s32.768-12.288 45.056 0l103.424 104.448 103.424-104.448c12.288-12.288 32.768-12.288 45.056 0s12.288 32.768 0 45.056l-103.424 105.472z" />
<glyph unicode="&#xe849;" glyph-name="icon-users" d="M746.496 124.416l-201.728 111.616c74.752 59.392 95.232 175.104 95.232 239.616v135.168c0 90.112-118.784 189.44-238.592 189.44-118.784 0-241.664-99.328-241.664-189.44v-135.168c0-58.368 25.6-178.176 101.376-238.592l-206.848-112.64c0 0-54.272-23.552-54.272-53.248v-81.92c0-29.696 24.576-53.248 54.272-53.248h692.224c29.696 0 53.248 23.552 53.248 53.248v81.92c0 31.744-53.248 53.248-53.248 53.248zM736.256-0.512h-671.744v57.344c4.096 3.072 10.24 7.168 15.36 9.216 2.048 1.024 3.072 2.048 5.12 2.048l205.824 112.64c19.456 10.24 31.744 28.672 33.792 50.176s-7.168 43.008-23.552 56.32c-54.272 43.008-76.8 138.24-76.8 188.416v135.168c0 46.080 86.016 124.928 177.152 124.928 92.16 0 174.080-77.824 174.080-124.928v-135.168c0-50.176-15.36-145.408-70.656-189.44-16.384-13.312-25.6-33.792-23.552-55.296s13.312-39.936 32.768-51.2l201.728-111.616c1.024-1.024 4.096-2.048 5.12-2.048 5.12-2.048 11.264-6.144 15.36-8.192v-58.368zM969.728 284.16l-203.776 111.616c74.752 58.368 98.304 175.104 98.304 239.616v135.168c0 89.088-121.856 190.464-241.664 190.464-77.824 0-156.672-43.008-202.752-96.256 25.6-2.048 55.296-2.048 79.872-10.24 33.792 26.624 76.8 41.984 122.88 41.984 92.16 0 177.152-78.848 177.152-125.952v-135.168c0-50.176-18.432-146.432-73.728-189.44-17.408-13.312-25.6-33.792-24.576-55.296 2.048-21.504 14.336-40.96 33.792-51.2l203.776-111.616c2.048-1.024 4.096-2.048 6.144-3.072 5.12-2.048 10.24-5.12 14.336-8.192v-56.32h-129.024c19.456-15.36 25.6-35.84 33.792-64.512h105.472c29.696 0 54.272 24.576 54.272 54.272v79.872c0 31.744-54.272 54.272-54.272 54.272z" />
<glyph unicode="&#xe84a;" glyph-name="icon-tablet22" d="M1024 704.512v-641.024c0-52.224-43.008-95.232-96.256-95.232h-831.488c-53.248 0-96.256 43.008-96.256 95.232v641.024c0 52.224 43.008 95.232 96.256 95.232h831.488c53.248 0 96.256-43.008 96.256-95.232zM96.256 736.256c-18.432 0-32.768-14.336-32.768-31.744v-641.024c0-17.408 14.336-31.744 32.768-31.744h831.488c18.432 0 32.768 14.336 32.768 31.744v641.024c0 17.408-14.336 31.744-32.768 31.744h-831.488zM224.256 384c0-34.816-28.672-63.488-64.512-63.488s-63.488 28.672-63.488 63.488c0 35.84 28.672 63.488 63.488 63.488s64.512-27.648 64.512-63.488zM927.744 448.512v-128c0-18.432-14.336-32.768-31.744-32.768s-31.744 14.336-31.744 32.768v128c0 17.408 14.336 31.744 31.744 31.744s31.744-14.336 31.744-31.744z" />
<glyph unicode="&#xe84b;" glyph-name="icon-user-follow" d="M64.512 65.024c0 25.6 18.432 33.792 26.624 36.864l280.576 133.12c20.48 9.216 33.792 28.672 36.864 50.176s-6.144 44.032-23.552 57.344c-66.56 54.272-97.28 171.008-97.28 233.472v159.744c0 67.584 116.736 159.744 224.256 159.744 108.544 0 224.256-91.136 224.256-159.744v-159.744c0-61.44-25.6-179.2-94.208-233.472-18.432-13.312-26.624-35.84-24.576-57.344s16.384-41.984 36.864-51.2l96.256-45.056 15.36 63.488-84.992 39.936c89.088 69.632 118.784 206.848 118.784 283.648v159.744c0 106.496-146.432 224.256-287.744 224.256s-288.768-117.76-288.768-224.256v-159.744c0-69.632 32.768-210.944 121.856-282.624l-280.576-133.12c0 0-64.512-28.672-64.512-63.488v-96.256c0-35.84 28.672-64.512 64.512-64.512h703.488v64.512h-703.488v64.512zM992.256 128.512h-96.256v95.232c0 18.432-14.336 32.768-31.744 32.768s-32.768-14.336-32.768-32.768v-95.232h-95.232c-18.432 0-32.768-14.336-32.768-32.768s14.336-31.744 32.768-31.744h95.232v-96.256c0-17.408 14.336-31.744 32.768-31.744s31.744 14.336 31.744 31.744v96.256h96.256c17.408 0 31.744 14.336 31.744 31.744s-14.336 32.768-31.744 32.768z" />
<glyph unicode="&#xe84d;" glyph-name="icon-user-following" d="M63.488 0.512v64.512c0 25.6 19.456 33.792 26.624 36.864l281.6 133.12c19.456 9.216 33.792 27.648 36.864 50.176s-7.168 44.032-23.552 57.344c-66.56 53.248-98.304 171.008-98.304 233.472v159.744c0 66.56 116.736 159.744 224.256 159.744 108.544 0 224.256-91.136 224.256-159.744v-159.744c0-61.44-25.6-179.2-94.208-233.472-17.408-13.312-26.624-35.84-23.552-57.344s16.384-41.984 36.864-51.2l161.792-76.8 37.888 54.272-173.056 80.896c88.064 69.632 117.76 206.848 117.76 283.648v159.744c0 106.496-146.432 224.256-287.744 224.256s-287.744-117.76-287.744-224.256v-159.744c0-69.632 31.744-210.944 120.832-282.624l-280.576-133.12c0 0-64.512-28.672-64.512-63.488v-96.256c0-35.84 29.696-64.512 64.512-64.512h640l-52.224 64.512h-587.776zM1012.736 236.032c-14.336 11.264-34.816 9.216-45.056-5.12l-137.216-208.896-84.992 84.992c-12.288 13.312-32.768 13.312-45.056 0s-12.288-32.768 0-45.056l112.64-112.64c12.288-13.312 32.768-13.312 45.056 0 3.072 3.072 6.144 6.144 7.168 10.24l152.576 232.448c10.24 13.312 8.192 33.792-6.144 45.056z" />
<glyph unicode="&#xe84e;" glyph-name="icon-earphones-alt" d="M1024 387.584c0 20.48-3.072 100.352-6.144 122.88-28.672 261.12-240.64 450.56-502.784 450.56-273.408 0-494.592-210.944-509.952-490.496 0-6.144-2.048-49.152-3.072-74.752v-14.336c-1.024-6.144-2.048-12.288-2.048-18.432v-215.040c0-46.080 37.888-84.992 84.992-84.992h86.016c47.104 0 84.992 38.912 84.992 84.992v215.040c0 47.104-37.888 84.992-84.992 84.992h-86.016c-6.144 0-11.264-1.024-17.408-2.048 1.024 11.264 1.024 19.456 1.024 21.504 13.312 244.736 207.872 429.056 446.464 429.056 229.376 0 413.696-164.864 439.296-393.216 1.024-9.216 2.048-33.792 4.096-57.344-6.144 1.024-13.312 2.048-19.456 2.048h-84.992c-47.104 0-84.992-37.888-84.992-84.992v-214.016c0-31.744 17.408-60.416 45.056-74.752l-205.824-79.872v5.12c0 17.408-14.336 31.744-31.744 31.744h-96.256c-17.408 0-31.744-14.336-31.744-31.744v-31.744c0-18.432 14.336-32.768 31.744-32.768h96.256c0 0 0 0 0 0l57.344 1.024 329.728 129.024c5.12 2.048 8.192 4.096 11.264 7.168 28.672 14.336 49.152 43.008 49.152 76.8v214.016c0 5.12-1.024 10.24-2.048 15.36 1.024 3.072 2.048 6.144 2.048 9.216zM84.992 384.512h86.016c12.288 0 21.504-10.24 21.504-21.504v-215.040c0-11.264-9.216-20.48-21.504-20.48h-86.016c-11.264 0-20.48 9.216-20.48 20.48v215.040c0 11.264 9.216 21.504 20.48 21.504zM832.512 363.008c0 11.264 9.216 21.504 21.504 21.504h84.992c11.264 0 20.48-10.24 20.48-21.504v-214.016c0-11.264-9.216-20.48-20.48-20.48h-84.992c-12.288 0-21.504 9.216-21.504 20.48v214.016z" />
<glyph unicode="&#xe84f;" glyph-name="icon-earphones" d="M1024 355.84c0 20.48-3.072 100.352-6.144 122.88-28.672 261.12-240.64 449.536-502.784 449.536-273.408 0-494.592-209.92-509.952-489.472 0-6.144-2.048-49.152-3.072-74.752v-14.336c-1.024-6.144-2.048-12.288-2.048-18.432v-278.528c0-47.104 37.888-84.992 84.992-84.992h86.016c47.104 0 84.992 37.888 84.992 84.992v278.528c0 47.104-37.888 84.992-84.992 84.992h-86.016c-6.144 0-11.264-1.024-17.408-2.048 1.024 10.24 1.024 18.432 1.024 21.504 13.312 244.736 207.872 429.056 446.464 429.056 229.376 0 413.696-164.864 439.296-393.216 1.024-9.216 3.072-33.792 4.096-57.344-6.144 1.024-13.312 2.048-19.456 2.048h-84.992c-47.104 0-84.992-37.888-84.992-84.992v-277.504c0-47.104 37.888-84.992 84.992-84.992h84.992c47.104 0 84.992 37.888 84.992 84.992v277.504c0 5.12-1.024 10.24-2.048 15.36 1.024 3.072 2.048 6.144 2.048 9.216zM84.992 351.744h86.016c12.288 0 21.504-9.216 21.504-20.48v-278.528c0-12.288-9.216-21.504-21.504-21.504h-86.016c-11.264 0-20.48 9.216-20.48 21.504v278.528c0 11.264 9.216 20.48 20.48 20.48zM959.488 53.76c0-12.288-9.216-21.504-20.48-21.504h-84.992c-12.288 0-21.504 9.216-21.504 21.504v277.504c0 11.264 9.216 20.48 21.504 20.48h84.992c11.264 0 20.48-9.216 20.48-20.48v-277.504z" />
<glyph unicode="&#xe850;" glyph-name="icon-user-unfollow" d="M798.72 576v159.744c0 106.496-146.432 224.256-287.744 224.256s-287.744-117.76-287.744-224.256v-159.744c0-69.632 31.744-210.944 120.832-282.624l-280.576-133.12c0 0-64.512-28.672-64.512-63.488v-96.256c0-35.84 29.696-64.512 64.512-64.512h608.256v64.512h-608.256v64.512c0 25.6 19.456 33.792 26.624 36.864l281.6 133.12c19.456 9.216 33.792 28.672 35.84 50.176s-6.144 44.032-22.528 57.344c-66.56 54.272-98.304 171.008-98.304 233.472v159.744c0 67.584 116.736 159.744 224.256 159.744 108.544 0 224.256-91.136 224.256-159.744v-159.744c0-61.44-25.6-179.2-94.208-233.472-17.408-13.312-26.624-34.816-24.576-57.344 3.072-22.528 17.408-40.96 36.864-51.2l18.432-8.192 28.672 52.224-20.48 14.336c89.088 69.632 118.784 206.848 118.784 283.648zM924.672 81.408l90.112 90.112c13.312 12.288 13.312 32.768 0 45.056s-32.768 13.312-45.056 0l-90.112-90.112-91.136 90.112c-12.288 13.312-32.768 13.312-45.056 0s-12.288-32.768 0-45.056l91.136-90.112-91.136-91.136c-12.288-12.288-12.288-32.768 0-45.056s32.768-12.288 45.056 0l91.136 91.136 90.112-91.136c12.288-12.288 32.768-12.288 45.056 0 13.312 12.288 13.312 32.768 0 45.056l-90.112 91.136z" />
<glyph unicode="&#xe851;" glyph-name="icon-bubbles" d="M424.96 281.088c230.4 0 409.6 131.072 406.528 327.68 0 173.056-182.272 311.296-413.696 311.296s-417.792-138.24-417.792-311.296c0-108.544 52.224-223.232 162.816-279.552 0-1.024 0-1.024 0-2.048 0-47.104-38.912-111.616-54.272-137.216v0c-1.024-3.072-2.048-6.144-2.048-10.24 0-12.288 10.24-23.552 23.552-23.552 2.048 0 5.12 1.024 6.144 1.024s1.024 0 1.024 0c80.896 13.312 201.728 104.448 220.16 126.976 18.432-3.072 30.72-3.072 46.080-3.072 6.144 0 13.312 0 21.504 0zM330.752 349.696l-40.96-33.792c-9.216-11.264-51.2-46.080-86.016-68.608 21.504 62.464 20.48 81.92 20.48 81.92l3.072 38.912-34.816 17.408c-89.088 46.080-129.024 140.288-129.024 223.232 0 137.216 158.72 246.784 354.304 246.784s350.208-109.568 350.208-246.784c-1.024-152.576-145.408-265.216-340.992-265.216 0 0-29.696-1.024-60.416 3.072l-35.84 3.072zM1024 349.696c0 87.040-33.792 152.576-117.76 202.752-2.048-23.552-9.216-48.128-16.384-69.632 55.296-37.888 70.656-76.8 70.656-133.12 0-68.608-32.768-118.784-107.52-157.696l-31.744-15.36c0 0 4.096-81.92 8.192-102.4-62.464 45.056-83.968 83.968-83.968 83.968l-32.768-5.12c-13.312-2.048-50.176-2.048-50.176-2.048-86.016 0-150.528 20.48-205.824 63.488 15.36 1.024-89.088 1.024-91.136-1.024 63.488-77.824 166.912-126.976 296.96-126.976 7.168 0 13.312 0 19.456 0 13.312 0 23.552 0 39.936 3.072 15.36-19.456 101.376-101.376 172.032-113.664 0 0 0 0 1.024 0s3.072 0 5.12 0c11.264 0 20.48 9.216 20.48 20.48 0 3.072-1.024 6.144-2.048 8.192v0c-13.312 22.528-33.792 90.112-33.792 130.048 0 1.024 0 1.024 0 2.048 95.232 48.128 139.264 119.808 139.264 212.992z" />
<glyph unicode="&#xe852;" glyph-name="icon-basket-loaded" d="M1015.808 676.352c-6.144 8.192-15.36 13.312-26.624 13.312h-99.328l-204.8 175.104c-25.6 24.576-65.536 24.576-91.136 0l-201.728-175.104h-81.92l-51.2 177.152c-20.48 69.632-67.584 77.824-88.064 77.824h-136.192c-18.432 0-32.768-14.336-32.768-31.744s14.336-32.768 32.768-32.768h136.192c5.12 0 18.432 0 26.624-30.72l177.152-650.24c4.096-13.312 16.384-22.528 30.72-22.528h432.128c13.312 0 25.6 8.192 29.696 20.48l152.576 449.536c3.072 10.24 2.048 20.48-4.096 29.696zM640 818.688l151.552-129.024h-304.128l152.576 129.024zM815.104 240.128h-385.024l-101.376 386.048h615.424l-129.024-386.048zM751.616 112.128c-44.032 0-79.872-35.84-79.872-79.872s35.84-80.896 79.872-80.896 80.896 35.84 80.896 80.896-35.84 79.872-80.896 79.872zM463.872 112.128c-44.032 0-79.872-35.84-79.872-79.872s35.84-80.896 79.872-80.896 79.872 35.84 79.872 80.896-35.84 79.872-79.872 79.872z" />
<glyph unicode="&#xe853;" glyph-name="icon-basket" d="M1015.808 676.352c-6.144 8.192-15.36 13.312-26.624 13.312h-678.912l-51.2 177.152c-20.48 69.632-67.584 77.824-88.064 77.824h-136.192c-18.432 0-32.768-14.336-32.768-31.744s14.336-32.768 32.768-32.768h136.192c5.12 0 18.432 0 26.624-30.72l177.152-650.24c4.096-13.312 16.384-22.528 30.72-22.528h432.128c13.312 0 25.6 8.192 29.696 20.48l152.576 449.536c3.072 10.24 2.048 20.48-4.096 29.696zM815.104 240.128h-385.024l-101.376 386.048h615.424l-129.024-386.048zM751.616 112.128c-44.032 0-79.872-35.84-79.872-79.872s35.84-80.896 79.872-80.896 80.896 35.84 80.896 80.896-35.84 79.872-80.896 79.872zM463.872 112.128c-44.032 0-79.872-35.84-79.872-79.872s35.84-80.896 79.872-80.896 79.872 35.84 79.872 80.896-35.84 79.872-79.872 79.872z" />
<glyph unicode="&#xe855;" glyph-name="icon-user" d="M512 896.512c108.544 0 223.232-92.16 223.232-160.768v-159.744c0-61.44-25.6-179.2-94.208-233.472-17.408-13.312-26.624-34.816-23.552-57.344s16.384-40.96 36.864-50.176l278.528-132.096c2.048-1.024 26.624-5.12 26.624-39.936v-62.464h-894.976v64.512c0 25.6 18.432 33.792 26.624 37.888l280.576 132.096c20.48 9.216 33.792 28.672 36.864 50.176s-6.144 44.032-23.552 58.368c-66.56 53.248-97.28 169.984-97.28 232.448v159.744c0 67.584 116.736 160.768 224.256 160.768zM512 960c-141.312 0-288.768-117.76-288.768-224.256v-159.744c0-69.632 32.768-210.944 121.856-282.624l-281.6-133.12c0 0-63.488-28.672-63.488-63.488v-96.256c0-35.84 28.672-64.512 63.488-64.512h896c35.84 0 64.512 28.672 64.512 64.512v96.256c0 37.888-64.512 63.488-64.512 63.488l-278.528 132.096c89.088 69.632 118.784 206.848 118.784 283.648v159.744c0 106.496-146.432 224.256-287.744 224.256v0z" />
<glyph unicode="&#xe856;" glyph-name="icon-share-alt" d="M902.144 10.752h-832.512v640h258.048l64.512 62.464-2.048 1.024h-320.512c-34.816 0-63.488-28.672-63.488-63.488v-640c0-35.84 28.672-64.512 63.488-64.512h832.512c34.816 0 63.488 28.672 63.488 64.512v500.736l-63.488-61.44v-439.296zM270.336 266.752h64.512c45.056 253.952 266.24 447.488 533.504 447.488 11.264 0 22.528 0 32.768 0l-116.736-116.736c-13.312-12.288-13.312-32.768 0-45.056 6.144-7.168 14.336-10.24 22.528-10.24s16.384 3.072 22.528 10.24l188.416 193.536-188.416 194.56c-12.288 12.288-32.768 12.288-45.056 0-13.312-13.312-13.312-32.768 0-46.080l115.712-115.712c-10.24 0-19.456 0-29.696 0-303.104 0-553.984-222.208-600.064-512z" />
<glyph unicode="&#xe857;" glyph-name="icon-share" d="M864.256 256.512c-53.248 0-99.328-25.6-129.024-65.536l-420.864 215.040c3.072 13.312 6.144 27.648 6.144 41.984 0 18.432-4.096 35.84-9.216 52.224l423.936 205.824c28.672-39.936 75.776-65.536 129.024-65.536 88.064 0 159.744 71.68 159.744 159.744s-71.68 159.744-159.744 159.744-159.744-71.68-159.744-159.744c0-12.288 1.024-24.576 4.096-35.84l-430.080-208.896c-29.696 31.744-71.68 52.224-118.784 52.224-88.064 0-159.744-71.68-159.744-159.744s71.68-159.744 159.744-159.744c51.2 0 96.256 23.552 125.952 60.416l422.912-215.040c-3.072-12.288-4.096-24.576-4.096-37.888 0-88.064 70.656-159.744 159.744-159.744s159.744 71.68 159.744 159.744-71.68 160.768-159.744 160.768zM864.256 896.512c53.248 0 96.256-43.008 96.256-96.256s-43.008-96.256-96.256-96.256-96.256 43.008-96.256 96.256 43.008 96.256 96.256 96.256zM159.744 351.744c-52.224 0-95.232 43.008-95.232 96.256s43.008 96.256 95.232 96.256c53.248 0 96.256-43.008 96.256-96.256s-43.008-96.256-96.256-96.256zM864.256-0.512c-53.248 0-96.256 43.008-96.256 96.256s43.008 96.256 96.256 96.256 96.256-43.008 96.256-96.256-43.008-96.256-96.256-96.256z" />
<glyph unicode="&#xe858;" glyph-name="icon-question" d="M512 960c-282.624 0-512-229.376-512-512s229.376-512 512-512c282.624 0 512 229.376 512 512s-229.376 512-512 512zM512-1.536c-246.784 0-447.488 202.752-447.488 449.536s200.704 448.512 447.488 448.512 448.512-201.728 448.512-448.512-201.728-449.536-448.512-449.536zM464.896 159.232h80.896v81.92h-80.896v-81.92zM510.976 736.768c-47.104 0-84.992-13.312-115.712-37.888s-45.056-75.776-44.032-117.76l1.024-3.072h73.728c0 25.6 8.192 61.44 24.576 74.752s36.864 18.432 60.416 18.432c27.648 0 48.128-7.168 63.488-21.504s21.504-36.864 21.504-64.512c0-22.528-5.12-41.984-16.384-58.368-10.24-16.384-28.672-39.936-55.296-70.656-26.624-24.576-43.008-43.008-49.152-58.368s-9.216-39.936-9.216-77.824h76.8c0 23.552 1.024 40.96 4.096 52.224s12.288 23.552 25.6 37.888c30.72 28.672 55.296 57.344 73.728 84.992 17.408 28.672 26.624 59.392 26.624 92.16 0 47.104-13.312 83.968-41.984 109.568s-68.608 39.936-119.808 39.936z" />
<glyph unicode="&#xe859;" glyph-name="icon-edit2" d="M964.608 910.848c-34.816 32.768-73.728 50.176-114.688 50.176-64.512 0-110.592-41.984-123.904-54.272-18.432-18.432-632.832-633.856-632.832-633.856-4.096-4.096-7.168-8.192-9.216-14.336-13.312-51.2-82.944-278.528-83.968-280.576-3.072-12.288 0-24.576 8.192-33.792 6.144-6.144 14.336-9.216 23.552-9.216 3.072 0 6.144 1.024 9.216 2.048s237.568 76.8 276.48 88.064c5.12 1.024 9.216 4.096 13.312 8.192 24.576 23.552 598.016 590.848 635.904 630.784 39.936 39.936 59.392 82.944 58.368 125.952-1.024 41.984-21.504 81.92-60.416 120.832zM715.776 804.352c16.384-4.096 55.296-17.408 94.208-56.32 39.936-39.936 50.176-86.016 52.224-96.256-125.952-125.952-415.744-411.648-529.408-525.312-10.24 24.576-27.648 54.272-55.296 81.92-33.792 33.792-67.584 53.248-93.184 63.488 112.64 113.664 407.552 408.576 531.456 532.48zM140.288 217.6c17.408-4.096 54.272-17.408 91.136-55.296 28.672-28.672 43.008-60.416 48.128-79.872-44.032-14.336-141.312-48.128-202.752-68.608 17.408 60.416 49.152 154.624 63.488 203.776zM920.576 710.144c-1.024-2.048-3.072-4.096-6.144-6.144-10.24 25.6-27.648 59.392-58.368 90.112-31.744 31.744-63.488 50.176-89.088 61.44 2.048 2.048 4.096 4.096 5.12 4.096 3.072 4.096 36.864 35.84 77.824 35.84 23.552 0 47.104-11.264 69.632-32.768 26.624-25.6 39.936-50.176 40.96-74.752 0-24.576-13.312-51.2-39.936-77.824z" />
<glyph unicode="&#xe85b;" glyph-name="icon-settings1" d="M159.744 571.904v356.352c0 17.408-14.336 31.744-31.744 31.744s-31.744-14.336-31.744-31.744v-356.352c-55.296-14.336-96.256-64.512-96.256-123.904s40.96-109.568 96.256-123.904v-356.352c0-17.408 14.336-31.744 31.744-31.744s31.744 14.336 31.744 31.744v356.352c55.296 14.336 96.256 64.512 96.256 123.904s-40.96 109.568-96.256 123.904zM128 384.512c0 0 0 0 0 0s0 0 0-1.024c-35.84 1.024-63.488 29.696-63.488 64.512s27.648 63.488 63.488 64.512c0 0 0 0 0 0s0 0 0 0c35.84-1.024 64.512-29.696 64.512-64.512s-28.672-63.488-64.512-63.488zM543.744 380.416v547.84c0 17.408-14.336 31.744-31.744 31.744s-31.744-14.336-31.744-31.744v-547.84c-55.296-14.336-96.256-64.512-96.256-123.904s40.96-110.592 96.256-124.928v-163.84c0-17.408 14.336-31.744 31.744-31.744s31.744 14.336 31.744 31.744v163.84c55.296 14.336 96.256 64.512 96.256 124.928 0 59.392-40.96 109.568-96.256 123.904zM512 192c0 0 0 0 0 0s0 0 0 0c-35.84 0-64.512 28.672-64.512 64.512s28.672 63.488 64.512 63.488c0 0 0 0 0 0s0 0 0 0c35.84 0 64.512-28.672 64.512-63.488s-28.672-64.512-64.512-64.512zM927.744 764.416v163.84c0 17.408-14.336 31.744-31.744 31.744s-31.744-14.336-31.744-31.744v-163.84c-55.296-14.336-96.256-64.512-96.256-123.904s40.96-110.592 96.256-124.928v-547.84c0-17.408 14.336-31.744 31.744-31.744s31.744 14.336 31.744 31.744v547.84c55.296 14.336 96.256 64.512 96.256 124.928 0 59.392-40.96 109.568-96.256 123.904zM896 576c0 0 0 0 0 0s0 0 0 0c-35.84 0-64.512 28.672-64.512 64.512s28.672 63.488 64.512 63.488c0 0 0 0 0 0s0 0 0 0c35.84 0 64.512-28.672 64.512-63.488 0-35.84-28.672-64.512-64.512-64.512z" />
<glyph unicode="&#xe85c;" glyph-name="icon-background" d="M543.744-18.944h76.8v-51.2h-76.8v51.2zM761.856-64v45.056h-76.8v-45.056zM909.312-64l-32.768 51.2h-69.632l12.288-51.2c0 0 19.456 0 45.056 0s45.056 0 45.056 0zM192.512-64l12.288 51.2h-70.656l-25.6-51.2c0 0 19.456 0 45.056 0s38.912 0 38.912 0zM256-18.944h76.8v-51.2h-76.8v51.2zM403.456-18.944h76.8v-51.2h-76.8v51.2zM0 300.544h51.2v-76.8h-51.2v76.8zM0 70.144l45.056 25.6v70.656l-45.056-12.288zM45.056-57.856l37.888 45.056c0 0-18.432 6.144-25.6 25.6s-12.288 31.744-12.288 31.744l-45.056-31.744c0 0 0-19.456 13.312-38.912 6.144-12.288 12.288-18.432 18.432-18.432 7.168-7.168 13.312-13.312 13.312-13.312zM0 646.656h45.056v70.656l-45.056 6.144zM0 582.144h51.2v-76.8h-51.2v76.8zM0 441.856h51.2v-76.8h-51.2v76.8zM179.2 947.712l13.312-51.2h69.632v51.2zM31.744 928.256l38.912-45.056c0 0 12.288 13.312 31.744 13.312s38.912 0 38.912 0l-25.6 51.2c0 0-19.456 0-45.056-7.168-6.144 0-19.456 0-25.6-6.144-6.144 0-13.312-6.144-13.312-6.144zM0 794.112l51.2-19.456v70.656l-51.2 31.744c0 0 0-19.456 0-45.056 0-12.288 0-37.888 0-37.888zM608.256 947.712h76.8v-51.2h-76.8v51.2zM466.944 947.712h76.8v-51.2h-76.8v51.2zM326.656 947.712h76.8v-51.2h-76.8v51.2zM1011.712 883.2l-45.056-37.888c0 0 0-19.456 0-38.912s0-37.888 0-37.888l51.2 18.432c0 0 0 19.456 0 45.056-6.144 31.744-6.144 51.2-6.144 51.2zM896 947.712l-25.6-51.2c0 0 19.456 0 38.912 0 12.288 0 18.432 0 25.6-7.168s12.288-6.144 12.288-6.144l38.912 45.056c0 0-7.168 6.144-13.312 6.144-6.144 6.144-19.456 6.144-25.6 6.144-25.6 7.168-51.2 7.168-51.2 7.168zM748.544 947.712v-51.2h70.656l13.312 51.2zM966.656 448h51.2v-76.8h-51.2v76.8zM966.656 589.312h51.2v-76.8h-51.2v76.8zM1017.856 729.6l-51.2-6.144v-70.656h51.2zM1011.712 12.8l-45.056 31.744c0 0 0-6.144 0-12.288s-6.144-19.456-6.144-25.6-25.6-25.6-25.6-25.6l37.888-45.056c0 0 6.144 6.144 13.312 6.144 6.144 6.144 12.288 13.312 18.432 25.6s7.168 19.456 13.312 25.6c-6.144 13.312-6.144 19.456-6.144 19.456zM1017.856 160.256l-51.2 6.144v-63.488l51.2-26.624zM966.656 307.712h51.2v-76.8h-51.2v76.8z" />
<glyph unicode="&#xe85d;" glyph-name="icon-blockquote2" d="M64.512 704c-25.6 0-51.2 13.312-64.512 31.744-25.6 64.512 13.312 147.456 25.6 166.912 13.312 37.888 31.744 57.344 64.512 57.344 12.288 0 25.6-6.144 31.744-12.288 0-7.168 6.144-13.312 0-32.768 0-6.144-6.144-18.432-19.456-37.888-6.144-13.312-12.288-31.744-19.456-45.056h7.168c12.288 0 37.888 0 44.032-31.744s0-64.512-18.432-82.944c-13.312-7.168-25.6-13.312-51.2-13.312zM90.112 928.256c-19.456 0-25.6-19.456-32.768-31.744v0c-6.144-19.456-37.888-96.256-18.432-147.456 0-6.144 12.288-13.312 31.744-13.312 12.288 0 19.456 7.168 25.6 13.312 12.288 6.144 19.456 31.744 12.288 51.2 0 6.144-6.144 6.144-12.288 6.144h-13.312c-6.144 0-18.432 0-31.744 13.312-12.288 6.144 0 31.744 25.6 76.8 6.144 6.144 13.312 25.6 13.312 31.744v0 0zM249.856 704c-25.6 0-51.2 13.312-64.512 31.744-25.6 64.512 13.312 147.456 25.6 166.912 7.168 37.888 32.768 57.344 58.368 57.344 12.288 0 25.6-6.144 31.744-12.288s12.288-13.312 6.144-32.768c-6.144-6.144-12.288-18.432-25.6-37.888-6.144-13.312-12.288-31.744-19.456-45.056h7.168c12.288 0 37.888 0 44.032-31.744 13.312-31.744 0-64.512-18.432-82.944-13.312-7.168-25.6-13.312-45.056-13.312zM269.312 928.256c-13.312 0-25.6-19.456-25.6-31.744v0c-13.312-19.456-45.056-96.256-25.6-147.456 0-6.144 12.288-13.312 31.744-13.312 12.288 0 19.456 7.168 25.6 13.312 12.288 6.144 19.456 31.744 12.288 51.2 0 6.144-6.144 6.144-12.288 6.144h-13.312c-6.144 0-18.432 0-31.744 13.312-6.144 6.144 6.144 31.744 25.6 76.8 6.144 6.144 13.312 25.6 13.312 31.744v0 0zM941.056-64c-13.312 0-25.6 6.144-31.744 12.288s-13.312 19.456-7.168 32.768c7.168 12.288 13.312 18.432 19.456 37.888 6.144 13.312 19.456 31.744 25.6 45.056h-6.144c-13.312 0-38.912 0-45.056 31.744-12.288 32.768 0 64.512 19.456 83.968 12.288 12.288 31.744 18.432 45.056 18.432 25.6 0 51.2-12.288 57.344-31.744 25.6-63.488-13.312-147.456-25.6-166.912-6.144-44.032-25.6-63.488-51.2-63.488zM934.912-32.256v0c18.432 0 25.6 19.456 31.744 31.744v0c12.288 19.456 37.888 96.256 19.456 141.312 0 6.144-13.312 13.312-32.768 13.312-12.288 0-18.432-7.168-25.6-13.312-12.288-6.144-18.432-31.744-12.288-51.2 0-6.144 6.144-6.144 12.288-6.144h7.168c6.144 0 18.432 0 31.744-13.312 12.288-19.456 0-37.888-25.6-82.944 6.144 6.144 0-13.312-6.144-19.456v0 0zM748.544-64c-12.288 0-25.6 6.144-31.744 12.288s-12.288 19.456-6.144 32.768c6.144 12.288 12.288 18.432 19.456 37.888 6.144 13.312 18.432 31.744 25.6 45.056h-7.168c-12.288 0-37.888 0-44.032 31.744-13.312 32.768 0 64.512 18.432 83.968 13.312 12.288 32.768 18.432 45.056 18.432 25.6 0 51.2-12.288 57.344-31.744 25.6-63.488-12.288-147.456-25.6-166.912-6.144-44.032-25.6-63.488-51.2-63.488zM742.4-32.256v0c19.456 0 25.6 19.456 31.744 31.744v0c13.312 19.456 38.912 96.256 19.456 141.312 0 6.144-12.288 13.312-31.744 13.312-13.312 0-19.456-7.168-25.6-13.312-13.312-6.144-19.456-31.744-13.312-51.2 0-6.144 7.168-6.144 13.312-6.144h6.144c6.144 0 19.456 0 31.744-13.312 13.312-19.456 0-37.888-25.6-82.944 7.168 6.144 0-13.312-6.144-19.456v0 0zM338.944 294.4h51.2v-57.344h-51.2v57.344zM397.312 166.4l12.288 25.6c0 0-6.144 0-6.144 0-6.144 0-13.312 6.144-13.312 6.144-6.144 7.168-6.144 7.168-6.144 13.312v6.144c0 0 0 0 0 0h-37.888c0 0 0 0 0-12.288 0-7.168 6.144-19.456 12.288-25.6s19.456-13.312 25.6-19.456c0 6.144 13.312 6.144 13.312 6.144zM653.312 172.544c6.144 0 18.432 7.168 25.6 19.456 12.288 6.144 12.288 19.456 12.288 25.6s0 13.312 0 13.312h-51.2c0 0 0 0 0 0v-7.168c0-6.144 0-6.144-6.144-12.288 0 0-6.144-6.144-13.312-6.144s-6.144 0-6.144 0l19.456-25.6c6.144-13.312 19.456-13.312 19.456-7.168zM474.112 192h89.088v-31.744h-89.088v31.744zM384 666.112c-6.144 0-19.456-7.168-25.6-19.456-12.288 0-12.288-13.312-12.288-19.456s0-12.288 0-12.288h51.2c0 0 0 0 0 0v12.288c0 6.144 0 6.144 6.144 13.312-6.144 0 0 0 0 0 6.144 0 6.144 0 6.144 0l-12.288 31.744c0 0-13.312 0-13.312-6.144zM640 672.256l-12.288-25.6c0 0 6.144 0 6.144 0 0-6.144 6.144-6.144 6.144-13.312 6.144-6.144 6.144-6.144 6.144-12.288v-6.144c0 0 0 0 0 0h51.2c0 0 0 0 0 12.288 0 6.144-6.144 19.456-12.288 25.6s-19.456 13.312-25.6 19.456c-6.144 0-19.456 0-19.456 0zM474.112 672.256h89.088v-31.744h-89.088v31.744zM338.944 601.6h51.2v-57.344h-51.2v57.344zM338.944 499.2h51.2v-57.344h-51.2v57.344zM338.944 396.8h51.2v-57.344h-51.2v57.344zM646.144 294.4h51.2v-57.344h-51.2v57.344zM646.144 601.6h51.2v-57.344h-51.2v57.344zM646.144 499.2h51.2v-57.344h-51.2v57.344zM646.144 396.8h51.2v-57.344h-51.2v57.344z" />
<glyph unicode="&#xe85e;" glyph-name="icon-blockquote1" d="M953.344-64c-12.288 0-18.432 0-25.6 12.288 0 7.168-6.144 13.312 0 25.6 0 7.168 7.168 13.312 13.312 32.768 6.144 12.288 12.288 25.6 19.456 37.888h-7.168c-6.144 0-25.6 0-37.888 25.6s0 51.2 12.288 64.512c13.312 6.144 25.6 12.288 38.912 12.288 19.456 0 37.888-6.144 45.056-25.6 18.432-51.2-13.312-114.688-19.456-134.144-22.528-38.912-19.456-51.2-38.912-51.2zM742.4-64c-12.288 0-19.456 0-25.6 12.288 0 7.168-6.144 13.312 0 25.6 0 7.168 6.144 13.312 13.312 32.768 6.144 12.288 12.288 25.6 18.432 37.888h-6.144c-6.144 0-25.6 0-37.888 25.6-7.168 25.6 0 51.2 12.288 64.512 13.312 6.144 25.6 12.288 38.912 12.288 18.432 0 37.888-6.144 44.032-25.6 19.456-51.2-12.288-114.688-18.432-134.144-19.456-34.816-19.456-51.2-38.912-51.2zM70.656 960c12.288 0 19.456 0 25.6-12.288 0-7.168 6.144-13.312 0-25.6 0-7.168-6.144-13.312-13.312-32.768-6.144-6.144-12.288-18.432-18.432-31.744h6.144c6.144 0 25.6 0 37.888-25.6s0-51.2-12.288-63.488c-16.384-7.168-31.744-7.168-45.056-7.168-19.456 0-37.888 7.168-45.056 25.6-19.456 45.056 10.24 109.568 19.456 135.168 16.384 25.6 25.6 37.888 45.056 37.888zM281.6 960c13.312 0 19.456 0 25.6-12.288 0-7.168 6.144-13.312 0-25.6 0-7.168-6.144-13.312-12.288-32.768-7.168-6.144-13.312-18.432-19.456-31.744h6.144c6.144 0 25.6 0 38.912-25.6 6.144-25.6 0-51.2-13.312-63.488-16.384-7.168-31.744-7.168-45.056-7.168-18.432 0-37.888 7.168-44.032 25.6-19.456 45.056 6.144 109.568 18.432 135.168s25.6 37.888 45.056 37.888zM441.344 396.8h51.2v-57.344h-51.2v57.344zM338.944 601.6h51.2v-57.344h-51.2v57.344zM338.944 499.2h51.2v-57.344h-51.2v57.344zM338.944 396.8h51.2v-57.344h-51.2v57.344zM543.744 396.8h51.2v-57.344h-51.2v57.344zM441.344 601.6h51.2v-57.344h-51.2v57.344zM543.744 601.6h51.2v-57.344h-51.2v57.344zM646.144 601.6h51.2v-57.344h-51.2v57.344zM646.144 499.2h51.2v-57.344h-51.2v57.344zM646.144 396.8h51.2v-57.344h-51.2v57.344z" />
<glyph unicode="&#xe85f;" glyph-name="icon-blog" d="M755.712-64h-493.568c-44.032 0-69.632 51.2-69.632 82.944s25.6 90.112 69.632 90.112h76.8v70.656h-274.432c-32.768 0-58.368 25.6-58.368 57.344v659.456c-6.144 31.744 25.6 57.344 58.368 57.344h902.144c31.744 0 57.344-25.6 57.344-57.344v-653.312c0-31.744-25.6-57.344-57.344-57.344h-287.744v-70.656h76.8c37.888 0 69.632-51.2 69.632-90.112s-25.6-89.088-69.632-89.088zM262.144-0.512h486.4c0 0 7.168 13.312 7.168 19.456s-7.168 19.456-13.312 25.6h-134.144v198.656h352.256v646.144h-896v-646.144h338.944v-198.656h-141.312c0 0-6.144-12.288-6.144-25.6 0-6.144 6.144-19.456 6.144-19.456zM505.856 410.112h-269.312c-12.288 0-18.432 6.144-18.432 18.432v0c0 13.312 6.144 19.456 18.432 19.456h269.312c12.288 0 19.456-6.144 19.456-19.456v0c0-12.288-13.312-18.432-19.456-18.432zM505.856 684.544h-269.312c-12.288 0-18.432 7.168-18.432 19.456v0c0 13.312 6.144 19.456 18.432 19.456h269.312c12.288 0 19.456-6.144 19.456-19.456v0c0-12.288-13.312-19.456-19.456-19.456zM864.256 351.744h-173.056c-12.288 0-25.6 13.312-25.6 25.6v358.4c0 13.312 13.312 25.6 25.6 25.6h173.056c12.288 0 25.6-12.288 25.6-25.6v-351.232c0-19.456-13.312-32.768-25.6-32.768z" />
<glyph unicode="&#xe860;" glyph-name="icon-bold" d="M0 941.568h413.696c87.040 0 162.816-27.648 195.584-60.416 52.224-48.128 78.848-109.568 78.848-185.344 0-45.056-33.792-149.504-119.808-199.68 63.488-24.576 117.76-61.44 147.456-101.376 30.72-39.936 45.056-90.112 45.056-152.576 0-88.064-31.744-160.768-95.232-217.088-62.464-56.32-82.944-65.536-187.392-65.536h-478.208v982.016zM96.256 557.568h300.032c66.56 0 97.28 12.288 128 35.84 30.72 24.576 47.104 62.464 47.104 113.664 0 44.032-15.36 77.824-44.032 100.352-29.696 23.552-61.44 34.816-130.048 34.816h-301.056v-284.672zM158.72 58.88h311.296c72.704 0 99.328 16.384 136.192 50.176 35.84 33.792 53.248 78.848 53.248 135.168 0 58.368-19.456 101.376-59.392 130.048s-73.728 41.984-151.552 41.984h-352.256v-357.376h62.464z" />
<glyph unicode="&#xe861;" glyph-name="icon-bold1" d="M576.512-57.856h-435.2v1011.712h370.688c166.912 0 307.2-141.312 307.2-307.2 0-57.344-19.456-115.712-51.2-173.056 70.656-57.344 121.856-147.456 121.856-236.544-6.144-160.768-141.312-294.912-313.344-294.912zM204.8 6.656h371.712c134.144 0 242.688 108.544 242.688 242.688 0 83.968-45.056 166.912-121.856 204.8l-31.744 19.456 25.6 25.6c38.912 45.056 57.344 102.4 57.344 153.6 0 128-108.544 243.712-236.544 243.712h-307.2v-889.856zM543.744 76.288h-204.8v333.824h198.656c82.944 0 147.456-76.8 147.456-166.912 0-89.088-64.512-166.912-141.312-166.912zM403.456 140.8h140.288c45.056 0 83.968 51.2 83.968 102.4s-38.912 102.4-83.968 102.4h-140.288v-204.8zM480.256 479.744h-141.312v339.968h141.312c76.8 0 140.288-76.8 140.288-166.912s-63.488-173.056-140.288-173.056zM403.456 544.256h76.8c37.888 0 76.8 51.2 76.8 102.4s-31.744 102.4-76.8 102.4h-76.8v-204.8z" />
<glyph unicode="&#xe862;" glyph-name="icon-border1" d="M966.656-64h-909.312c-31.744 0-57.344 25.6-57.344 57.344v909.312c0 31.744 25.6 57.344 57.344 57.344h915.456c25.6 0 51.2-25.6 51.2-57.344v-915.456c0-25.6-25.6-51.2-57.344-51.2zM64.512-0.512h896v897.024h-896v-897.024zM742.4 115.2h-460.8c-25.6 0-57.344 25.6-57.344 57.344v544.768c0 31.744 25.6 57.344 57.344 57.344h460.8c25.6 0 57.344-25.6 57.344-57.344l-6.144-544.768c0-31.744-25.6-57.344-51.2-57.344zM294.912 179.712h441.344v524.288h-441.344v-524.288z" />
<glyph unicode="&#xe863;" glyph-name="icon-border" d="M966.656-64h-909.312c-31.744 0-57.344 25.6-57.344 57.344v909.312c0 31.744 25.6 57.344 57.344 57.344h915.456c25.6 0 51.2-25.6 51.2-57.344v-915.456c0-25.6-25.6-51.2-57.344-51.2zM64.512-0.512h896v897.024h-896v-897.024zM460.8 102.912v51.2h-70.656l-12.288-51.2zM594.944 102.912v51.2h-76.8v-51.2zM742.4 102.912l-25.6 51.2h-70.656l13.312-51.2c0 0 19.456 0 37.888 0 25.6 0 45.056 0 45.056 0zM179.2 294.4l51.2 6.144v76.8h-51.2zM192.512 154.112l44.032 37.888c0 0 0 19.456 0 31.744s0 32.768 0 32.768l-51.2-25.6c0 0 0-19.456 0-38.912-6.144-25.6 7.168-37.888 7.168-37.888zM313.344 102.912l19.456 51.2c0 0-19.456 0-31.744 0s-19.456 0-19.456 0-12.288 6.144-12.288 6.144l-32.768-45.056c0 0 0-6.144 13.312-6.144 6.144 0 19.456 0 25.6-6.144 19.456 0 37.888 0 37.888 0zM185.344 717.312l45.056-32.768c0 0 0 19.456 6.144 32.768 7.168 18.432 25.6 18.432 25.6 18.432l-37.888 45.056c0 0 0 0-13.312-6.144-6.144-6.144-12.288-6.144-18.432-19.456-13.312-19.456-7.168-37.888-7.168-37.888zM179.2 569.856l51.2-6.144v69.632l-51.2 19.456zM179.2 512.512h51.2v-76.8h-51.2v76.8zM569.344 794.112v-45.056h64.512l12.288 45.056zM429.056 794.112l6.144-45.056h70.656v45.056zM281.6 794.112l25.6-51.2h70.656l-6.144 51.2c0 0-19.456 0-45.056 0s-45.056 0-45.056 0zM838.656 601.6l-45.056-12.288v-64.512h45.056zM838.656 749.056l-45.056-31.744c0 0 6.144-13.312 6.144-32.768s0-31.744 0-31.744l51.2 25.6c0 0 0 19.456 0 38.912-12.288 6.144-12.288 31.744-12.288 31.744zM710.656 794.112l-25.6-51.2c0 0 19.456 0 31.744 0 6.144 0 19.456 0 25.6 0s6.144 0 6.144 0l38.912 44.032c0 0-6.144 0-13.312 0s-18.432 0-25.6 0c-18.432 7.168-37.888 7.168-37.888 7.168zM838.656 179.712l-45.056 31.744c0 0 6.144-19.456-6.144-31.744-6.144-19.456-25.6-25.6-25.6-25.6l37.888-38.912c0 0 7.168 6.144 7.168 6.144 6.144 7.168 12.288 13.312 18.432 19.456 13.312 13.312 13.312 38.912 13.312 38.912zM838.656 326.144h-45.056v-63.488l45.056-25.6zM793.6 461.312h51.2v-76.8h-51.2v76.8z" />
<glyph unicode="&#xe864;" glyph-name="icon-bordercolor1" d="M454.656 115.2c-6.144 0-6.144 0-13.312 0-57.344 0-146.432 19.456-223.232 102.4-58.368 57.344-90.112 128-83.968 198.656 0 108.544 83.968 191.488 121.856 224.256 90.112 69.632 185.344 108.544 287.744 108.544 160.768 0 301.056-102.4 346.112-249.856 6.144-37.888 0-82.944-31.744-121.856s-76.8-63.488-121.856-63.488v0c-38.912 0-64.512 12.288-82.944 19.456-19.456 12.288-25.6 12.288-32.768 12.288 0 0-6.144 0-6.144-6.144-6.144-6.144 6.144-19.456 19.456-31.744s31.744-25.6 31.744-45.056c6.144-38.912-19.456-76.8-37.888-96.256s-45.056-25.6-70.656-31.744c0 0-76.8-19.456-102.4-19.456zM543.744 704c-89.088 0-179.2-31.744-262.144-102.4-25.6-19.456-102.4-89.088-108.544-185.344-6.144-57.344 19.456-115.712 70.656-166.912 57.344-57.344 120.832-89.088 197.632-89.088 7.168 0 7.168 0 13.312 0 19.456 0 45.056 6.144 57.344 6.144l31.744 6.144c7.168 7.168 38.912 13.312 58.368 25.6 6.144 7.168 25.6 32.768 18.432 58.368 0 6.144-12.288 12.288-18.432 18.432-19.456 19.456-45.056 45.056-32.768 83.968l7.168 6.144c18.432 31.744 57.344 25.6 95.232 12.288 19.456-6.144 45.056-18.432 70.656-18.432v0c31.744 0 70.656 18.432 90.112 44.032s31.744 58.368 18.432 83.968c-37.888 128-165.888 217.088-307.2 217.088zM787.456 486.912c0-32.768-25.6-58.368-57.344-58.368s-58.368 25.6-58.368 58.368c0 31.744 25.6 57.344 58.368 57.344s57.344-25.6 57.344-57.344zM594.944 576c0-31.744-25.6-57.344-57.344-57.344s-57.344 25.6-57.344 57.344c0 31.744 25.6 57.344 57.344 57.344s57.344-25.6 57.344-57.344zM422.912 486.912c0-32.768-26.624-58.368-58.368-58.368s-57.344 25.6-57.344 58.368c0 31.744 25.6 57.344 57.344 57.344s58.368-25.6 58.368-57.344zM480.256 288.256c0-31.744-25.6-57.344-57.344-57.344s-58.368 25.6-58.368 57.344c0 31.744 25.6 57.344 58.368 57.344s57.344-25.6 57.344-57.344zM576.512 960h76.8v-51.2h-76.8v51.2zM793.6 908.8l13.312 51.2h-90.112v-51.2zM921.6 908.8l31.744 45.056c0 0-25.6 0-37.888 6.144-25.6 0-45.056 0-45.056 0l-25.6-51.2h76.8zM236.544 908.8l-12.288 51.2h-82.944l18.432-51.2zM294.912 960h76.8v-51.2h-76.8v51.2zM435.2 960h76.8v-51.2h-76.8v51.2zM51.2 697.856h-51.2v-76.8h51.2zM51.2 825.856l-45.056 31.744c0 0 0-25.6 0-45.056-6.144-25.6-6.144-44.032-6.144-44.032l51.2-13.312v70.656zM102.4 908.8l-31.744 45.056c0 0-19.456 0-38.912 0-12.288-6.144-18.432-13.312-18.432-19.456-7.168-6.144 0-12.288-7.168-12.288l38.912-38.912c0 0 0 0 0 13.312 6.144 6.144 12.288 12.288 19.456 18.432 25.6-6.144 37.888-6.144 37.888-6.144zM51.2 274.944h-51.2v-76.8h51.2zM0 416.256h51.2v-76.8h-51.2v76.8zM0 556.544h51.2v-76.8h-51.2v76.8zM166.912-18.944l-19.456-45.056h82.944l6.144 45.056zM51.2 6.656l-37.888-38.912c0 0 0-6.144 0-12.288s12.288-19.456 18.432-19.456c19.456-6.144 38.912-6.144 38.912-6.144l31.744 44.032c0 0-19.456 0-37.888 0-7.168 0-19.456 7.168-19.456 13.312 6.144 19.456 6.144 19.456 6.144 19.456zM51.2 134.656l-51.2-13.312c0 0 0-25.6 0-45.056 0-25.6 0-44.032 0-44.032l45.056 31.744 6.144 70.656zM576.512-18.944h76.8v-51.2h-76.8v51.2zM435.2-18.944h76.8v-51.2h-76.8v51.2zM294.912-18.944h76.8v-51.2h-76.8v51.2zM978.944 6.656l38.912-38.912c0 0 0 6.144 6.144 13.312 0 6.144 6.144 18.432 6.144 25.6 0 18.432 0 37.888 0 37.888l-51.2 25.6c0 0 0-19.456 0-37.888 0-7.168 0-19.456 0-25.6 0 0 0 0 0 0zM858.112-18.944l25.6-51.2c0 0 25.6 0 44.032 0s38.912 6.144 38.912 6.144l-38.912 45.056h-69.632zM722.944-18.944v-45.056h83.968l-13.312 45.056zM978.944 493.056h51.2v-76.8h-51.2v76.8zM978.944 345.6h51.2v-76.8h-51.2v76.8zM978.944 134.656l45.056-13.312v83.968h-45.056zM978.944 819.712l45.056 31.744c0 0 0 25.6-6.144 37.888s-6.144 38.912-6.144 38.912l-38.912-31.744c0 0 0-19.456 0-32.768 6.144-25.6 6.144-44.032 6.144-44.032zM978.944 691.712h45.056v89.088l-45.056-12.288zM978.944 633.344h51.2v-76.8h-51.2v76.8z" />
<glyph unicode="&#xe865;" glyph-name="icon-bordercolor" d="M966.656-64h-909.312c-31.744 0-57.344 25.6-57.344 57.344v909.312c0 31.744 25.6 57.344 57.344 57.344h915.456c25.6 0 51.2-25.6 51.2-57.344v-915.456c0-25.6-25.6-51.2-57.344-51.2zM64.512-0.512h896v897.024h-896v-897.024zM454.656 115.2c-6.144 0-6.144 0-13.312 0-57.344 0-146.432 19.456-223.232 102.4-58.368 57.344-90.112 128-83.968 198.656 0 108.544 83.968 191.488 121.856 224.256 90.112 69.632 185.344 108.544 287.744 108.544 160.768 0 301.056-102.4 346.112-249.856 6.144-37.888 0-82.944-31.744-121.856s-76.8-63.488-121.856-63.488v0c-38.912 0-64.512 12.288-82.944 19.456-19.456 12.288-25.6 12.288-32.768 12.288 0 0-6.144 0-6.144-6.144-6.144-6.144 6.144-19.456 19.456-31.744s31.744-25.6 31.744-45.056c6.144-38.912-19.456-76.8-37.888-96.256s-45.056-25.6-70.656-31.744c0 0-76.8-19.456-102.4-19.456zM543.744 704c-89.088 0-179.2-31.744-262.144-102.4-25.6-19.456-102.4-89.088-108.544-185.344-6.144-57.344 19.456-115.712 70.656-166.912 57.344-57.344 120.832-89.088 197.632-89.088 7.168 0 7.168 0 13.312 0 19.456 0 45.056 6.144 57.344 6.144l31.744 6.144c7.168 7.168 38.912 13.312 58.368 25.6 6.144 7.168 25.6 32.768 18.432 58.368 0 6.144-12.288 12.288-18.432 18.432-19.456 19.456-45.056 45.056-32.768 83.968l7.168 6.144c18.432 31.744 57.344 25.6 95.232 12.288 19.456-6.144 45.056-18.432 70.656-18.432v0c31.744 0 70.656 18.432 90.112 44.032s31.744 58.368 18.432 83.968c-37.888 128-165.888 217.088-307.2 217.088zM787.456 486.912c0-32.768-25.6-58.368-57.344-58.368s-58.368 25.6-58.368 58.368c0 31.744 25.6 57.344 58.368 57.344s57.344-25.6 57.344-57.344zM594.944 576c0-31.744-25.6-57.344-57.344-57.344s-57.344 25.6-57.344 57.344c0 31.744 25.6 57.344 57.344 57.344s57.344-25.6 57.344-57.344zM422.912 486.912c0-32.768-26.624-58.368-58.368-58.368s-57.344 25.6-57.344 58.368c0 31.744 25.6 57.344 57.344 57.344s58.368-25.6 58.368-57.344zM480.256 288.256c0-31.744-25.6-57.344-57.344-57.344s-58.368 25.6-58.368 57.344c0 31.744 25.6 57.344 58.368 57.344s57.344-25.6 57.344-57.344z" />
</font>
</defs>
</svg>
